<svg width="1280" height="832" viewBox="0 0 1280 832" fill="none" xmlns="http://www.w3.org/2000/svg">
<g clip-path="url(#clip0_1_3)">
<rect width="1280" height="832" fill="url(#paint0_linear_1_3)"/>
<circle cx="640.5" cy="769.5" r="306.5" fill="url(#paint1_radial_1_3)"/>
<path d="M172.5 691.666C122.346 684.562 103.501 733.998 71.9999 773.666C46.5704 805.688 21.9999 865.666 21.9999 865.666H1172C1172 865.666 1022.13 860.71 963 798.666C949.447 784.446 949.134 769.116 932.5 758.666C915.639 748.072 902.142 745.392 882.5 748.666C863.173 751.887 856.071 764.049 839 773.666C814.18 787.646 803.476 809.453 775 808.666C747.884 807.916 736.771 789.848 715 773.666C693.377 757.594 682.335 746.858 664.5 726.666C641.518 700.646 643.749 671.865 614.5 653.166C580.778 631.607 551.743 635.297 512.5 643.166C432.254 659.256 450.692 821.156 372 798.666C332.279 787.313 335.798 725.639 294.5 726.666C272.636 727.209 264.87 748.596 243 748.666C207.595 748.779 207.555 696.631 172.5 691.666Z" fill="#B0B0B0" stroke="black" stroke-width="8"/>
<path d="M1361.5 666.666C1411.66 659.562 1430.5 708.998 1462 748.666C1487.43 780.688 1512 840.666 1512 840.666H362.001C362.001 840.666 511.867 835.71 571.001 773.666C584.554 759.446 584.868 744.116 601.501 733.666C618.363 723.072 631.859 720.392 651.501 723.666C670.828 726.887 677.93 739.049 695.001 748.666C719.822 762.646 730.525 784.453 759.001 783.666C786.118 782.916 797.23 764.848 819.001 748.666C840.624 732.594 851.666 721.858 869.501 701.666C892.483 675.646 890.252 646.865 919.501 628.166C953.224 606.607 982.258 610.297 1021.5 618.166C1101.75 634.256 1083.31 796.156 1162 773.666C1201.72 762.313 1198.2 700.639 1239.5 701.666C1261.36 702.209 1269.13 723.596 1291 723.666C1326.41 723.779 1326.45 671.631 1361.5 666.666Z" fill="#B0B0B0" stroke="black" stroke-width="8"/>
<path d="M931.502 710.666C881.348 703.562 862.502 752.998 831.002 792.666C805.572 824.688 781.002 884.666 781.002 884.666H1931C1931 884.666 1781.14 879.71 1722 817.666C1708.45 803.446 1708.14 788.116 1691.5 777.666C1674.64 767.072 1661.14 764.392 1641.5 767.666C1622.17 770.887 1615.07 783.049 1598 792.666C1573.18 806.646 1562.48 828.453 1534 827.666C1506.89 826.916 1495.77 808.848 1474 792.666C1452.38 776.594 1441.34 765.858 1423.5 745.666C1400.52 719.646 1402.75 690.865 1373.5 672.166C1339.78 650.607 1310.74 654.297 1271.5 662.166C1191.26 678.256 1209.69 840.156 1131 817.666C1091.28 806.313 1094.8 744.639 1053.5 745.666C1031.64 746.209 1023.87 767.596 1002 767.666C966.597 767.779 966.557 715.631 931.502 710.666Z" fill="#B0B0B0" stroke="black" stroke-width="8"/>
<path d="M-313.622 622.263C-362.379 608.529 -387.654 655.007 -424.167 690.116C-453.643 718.458 -485.998 774.62 -485.998 774.62L653.713 928.103C653.713 928.103 505.85 903.19 455.525 833.808C443.991 817.907 445.727 802.672 430.637 790.096C415.34 777.347 402.322 772.889 382.419 773.512C362.835 774.125 354.173 785.231 335.971 792.483C309.507 803.026 295.989 823.208 267.872 818.628C241.099 814.266 232.498 794.876 213.08 775.933C193.796 757.12 184.286 745.006 169.305 722.614C150.001 693.76 156.054 665.534 129.562 643.098C99.0189 617.231 69.7515 617.014 29.8091 619.574C-51.8663 624.81 -55.2011 787.724 -130.188 754.931C-168.038 738.379 -156.319 677.726 -197.385 673.232C-219.125 670.853 -229.677 691.012 -251.36 688.162C-286.463 683.549 -279.543 631.862 -313.622 622.263Z" fill="#B0B0B0" stroke="black" stroke-width="8"/>
</g>
<defs>
<linearGradient id="paint0_linear_1_3" x1="640" y1="0" x2="640" y2="832" gradientUnits="userSpaceOnUse">
<stop stop-color="#FFC701"/>
<stop offset="0.567708" stop-color="#FF3D00"/>
<stop offset="0.822917" stop-color="#FF3E49"/>
<stop offset="1" stop-color="#C13EFF"/>
</linearGradient>
<radialGradient id="paint1_radial_1_3" cx="0" cy="0" r="1" gradientUnits="userSpaceOnUse" gradientTransform="translate(640.5 769.5) rotate(90) scale(306.5)">
<stop stop-color="#F7F7F7"/>
<stop offset="0.364583" stop-color="#FFF59A"/>
<stop offset="0.692708" stop-color="#FFE600"/>
<stop offset="1" stop-color="#FF9900"/>
</radialGradient>
<clipPath id="clip0_1_3">
<rect width="1280" height="832" fill="white"/>
</clipPath>
</defs>
</svg>
