<svg width="1280" height="832" viewBox="0 0 1280 832" fill="none" xmlns="http://www.w3.org/2000/svg">
<g clip-path="url(#clip0_1_12)">
<rect width="1280" height="832" fill="#B0B0B0"/>
<path d="M-449.049 36.678C-490.506 43.0375 -509.929 72.1295 -535.705 107.968C-577.432 165.984 -570.028 284.613 -570.028 284.613L761.86 1217.21C761.86 1217.21 823.165 1192.02 837.806 1156.96C855.048 1115.67 830.831 1088.23 811.507 1051.3C793.936 1017.71 741.201 1017.74 749.387 978.352C753.859 956.834 775.199 952.528 782.183 931.515C796.411 888.706 762.792 867.254 744.763 828.968C728.095 793.572 664.686 771.819 694.89 742.787C711.546 726.778 731.617 743.622 750.29 730.318C783.121 706.926 779.777 668.518 773.805 630.085C767.148 587.237 743.599 569.346 711.684 542.961C670.335 508.778 606.045 544.838 581.918 495.723C565.166 461.624 586.83 433.382 583.447 394.274C579.743 351.456 573.664 328.061 561.863 287.546C544.282 227.193 543.496 182.177 498.251 141.575C441.496 90.6451 406.862 146.061 328.843 142.48C265.446 139.57 198.028 84.0647 139.658 116.249C88.1752 144.635 97.0834 226.472 40.7048 233.461C9.87719 237.282 -5.52638 222.952 -33.0959 211.232C-85.0292 189.156 -94.4233 136.993 -151.027 128.656C-220.139 118.477 -278.374 251.734 -324.346 200.34C-347.606 174.338 -327.137 140.693 -344.443 109.924C-369.292 65.7431 -397.608 28.787 -449.049 36.678Z" fill="#B0B0B0" stroke="black" stroke-width="8"/>
<path d="M1675.7 23.678C1717.16 30.0375 1736.58 59.1295 1762.36 94.968C1804.09 152.984 1796.68 271.613 1796.68 271.613L464.794 1204.21C464.794 1204.21 403.489 1179.02 388.847 1143.96C371.606 1102.67 395.822 1075.23 415.146 1038.3C432.717 1004.71 485.452 1004.74 477.266 965.352C472.794 943.834 451.454 939.528 444.47 918.515C430.242 875.706 463.861 854.254 481.89 815.968C498.558 780.572 561.967 758.819 531.763 729.787C515.107 713.778 495.036 730.622 476.363 717.318C443.532 693.926 446.876 655.518 452.848 617.085C459.505 574.237 483.054 556.346 514.969 529.961C556.318 495.778 620.608 531.838 644.736 482.723C661.487 448.624 639.823 420.382 643.206 381.274C646.91 338.456 652.989 315.061 664.79 274.546C682.371 214.193 683.157 169.177 728.402 128.575C785.157 77.6451 819.791 133.061 897.81 129.48C961.207 126.57 1028.63 71.0647 1087 103.249C1138.48 131.635 1129.57 213.472 1185.95 220.461C1216.78 224.282 1232.18 209.952 1259.75 198.232C1311.68 176.156 1321.08 123.993 1377.68 115.656C1446.79 105.477 1505.03 238.734 1551 187.34C1574.26 161.338 1553.79 127.693 1571.1 96.9235C1595.94 52.7431 1624.26 15.787 1675.7 23.678Z" fill="#B0B0B0" stroke="black" stroke-width="8"/>
<path d="M-357.897 462.512C-388.209 491.501 -387.433 526.472 -387.992 570.614C-388.896 642.072 -314.788 735 -314.788 735H1311.15C1311.15 735 1346.92 679.205 1338.8 642.086C1329.24 598.376 1293.67 589.788 1256.65 570.614C1222.99 553.179 1179.81 583.454 1163.93 546.492C1155.25 526.3 1170.26 510.533 1163.93 489.314C1151.03 446.087 1111.18 447.797 1074.45 426.776C1040.5 407.342 976.08 425.893 984.17 384.786C988.631 362.12 1014.73 364.405 1022.4 342.797C1035.88 304.804 1011.11 275.26 984.17 247.202C954.141 215.922 924.589 214.773 883.312 211.466C829.834 207.182 797.854 273.596 749.919 247.202C716.638 228.878 718.185 193.318 692.982 163.223C665.389 130.273 646.991 114.595 614.085 88.1769C565.067 48.822 538.603 12.3982 478.252 5.09056C402.549 -4.07586 405.964 61.184 340 103C286.399 136.979 199.337 130.181 169.983 190.025C144.092 242.807 198.329 304.734 156.155 342.797C133.095 363.609 112.257 360.705 82.9518 366.918C27.7481 378.622 -9.86676 341.281 -61.0154 366.918C-123.467 398.221 -94.7375 540.781 -161.874 525.051C-195.842 517.092 -198.372 477.791 -230.197 462.512C-275.893 440.575 -320.285 426.543 -357.897 462.512Z" fill="#B0B0B0" stroke="black" stroke-width="8"/>
<path d="M1618.9 462.512C1649.21 491.501 1648.43 526.472 1648.99 570.614C1649.9 642.072 1575.79 735 1575.79 735H-50.1467C-50.1467 735 -85.9186 679.205 -77.8015 642.086C-68.2432 598.376 -32.6675 589.788 4.34924 570.614C38.0072 553.179 105.612 607.576 121.5 570.614C130.179 550.422 90.7424 510.533 97.0739 489.314C109.973 446.087 149.817 447.797 186.545 426.776C220.5 407.342 284.92 425.893 276.83 384.786C272.369 362.12 246.266 364.405 238.601 342.796C225.125 304.804 249.894 275.26 276.83 247.202C306.859 215.922 336.411 214.773 377.688 211.466C431.166 207.182 463.146 273.596 511.081 247.202C544.362 228.878 542.815 193.318 568.018 163.223C595.611 130.273 614.009 114.595 646.915 88.1769C695.933 48.822 722.397 12.3982 782.748 5.09054C858.451 -4.07588 882.036 65.6839 948 107.5C1001.6 141.479 1061.66 130.181 1091.02 190.025C1116.91 242.807 1109.33 276.937 1151.5 315C1174.56 335.812 1218.69 326.287 1248 332.5C1303.2 344.204 1270.87 341.281 1322.02 366.918C1384.47 398.221 1355.74 540.781 1422.87 525.051C1456.84 517.092 1459.37 477.791 1491.2 462.512C1536.89 440.574 1581.29 426.543 1618.9 462.512Z" fill="#B0B0B0" stroke="black" stroke-width="8"/>
<path d="M-193.897 595.512C-224.209 624.501 -223.433 659.472 -223.992 703.614C-224.896 775.072 -150.788 868 -150.788 868H1475.15C1475.15 868 1510.92 812.205 1502.8 775.086C1493.24 731.376 1457.67 722.788 1420.65 703.614C1386.99 686.179 1343.81 716.454 1327.93 679.492C1319.25 659.3 1334.26 643.533 1327.93 622.314C1315.03 579.087 1275.18 580.798 1238.46 559.776C1204.5 540.342 1140.08 558.893 1148.17 517.786C1152.63 495.12 1178.73 497.405 1186.4 475.797C1199.88 437.804 1175.11 408.26 1148.17 380.202C1118.14 348.922 1088.59 347.773 1047.31 344.466C993.834 340.182 961.854 406.596 913.919 380.202C880.638 361.878 882.185 326.318 856.983 296.223C829.39 263.273 810.991 247.595 778.085 221.177C729.067 181.822 702.603 145.398 642.252 138.091C566.549 128.924 528.46 179.361 462.496 221.177C408.895 255.156 363.337 263.181 333.983 323.025C308.093 375.807 362.33 437.734 320.156 475.797C297.095 496.609 276.258 493.705 246.952 499.918C191.748 511.622 154.133 474.281 102.985 499.918C40.5331 531.221 69.2625 673.781 2.12622 658.051C-31.8417 650.092 -34.3722 610.791 -66.1972 595.512C-111.893 573.575 -156.285 559.543 -193.897 595.512Z" fill="#B0B0B0" stroke="black" stroke-width="8"/>
</g>
<defs>
<clipPath id="clip0_1_12">
<rect width="1280" height="832" fill="white"/>
</clipPath>
</defs>
</svg>
