<svg width="1280" height="832" viewBox="0 0 1280 832" fill="none" xmlns="http://www.w3.org/2000/svg">
<g clip-path="url(#clip0_1_32)">
<rect width="1280" height="832" fill="url(#paint0_radial_1_32)"/>
<path fill-rule="evenodd" clip-rule="evenodd" d="M660.5 349.078C660.5 344.975 683 286.36 683 286.36L683.971 286.64C683.971 286.64 672 349.078 672 352.595C668.869 354.653 666.663 358.689 663.5 356.698C661.037 355.148 661.455 352.159 660.5 349.078Z" fill="#5383FF"/>
<path fill-rule="evenodd" clip-rule="evenodd" d="M698.415 323.499C698.415 319.396 720.915 260.78 720.915 260.78L721.886 261.06C721.886 261.06 709.915 323.499 709.915 327.016C706.784 329.074 704.578 333.109 701.415 331.119C698.952 329.569 699.37 326.579 698.415 323.499Z" fill="#5383FF"/>
<path fill-rule="evenodd" clip-rule="evenodd" d="M646.415 285.774C646.415 281.671 668.915 223.055 668.915 223.055L669.886 223.335C669.886 223.335 657.915 285.774 657.915 289.291C654.784 291.349 652.578 295.384 649.415 293.394C646.952 291.844 647.37 288.854 646.415 285.774Z" fill="#5383FF"/>
<path fill-rule="evenodd" clip-rule="evenodd" d="M684.33 260.194C684.33 256.091 706.83 197.476 706.83 197.476L707.801 197.755C707.801 197.755 695.83 260.194 695.83 263.711C692.698 265.769 690.493 269.804 687.33 267.814C684.866 266.264 685.284 263.274 684.33 260.194Z" fill="#5383FF"/>
<path fill-rule="evenodd" clip-rule="evenodd" d="M739.5 292.808C739.5 288.705 762 230.089 762 230.089L762.971 230.369C762.971 230.369 751 292.808 751 296.325C747.869 298.383 745.663 302.418 742.5 300.428C740.037 298.878 740.455 295.888 739.5 292.808Z" fill="#5383FF"/>
<path fill-rule="evenodd" clip-rule="evenodd" d="M777.415 267.228C777.415 263.125 799.915 204.509 799.915 204.509L800.886 204.789C800.886 204.789 788.915 267.228 788.915 270.745C785.784 272.803 783.578 276.838 780.415 274.848C777.952 273.298 778.37 270.308 777.415 267.228Z" fill="#5383FF"/>
<path fill-rule="evenodd" clip-rule="evenodd" d="M725.415 229.503C725.415 225.4 747.915 166.785 747.915 166.785L748.886 167.064C748.886 167.064 736.915 229.503 736.915 233.02C733.784 235.078 731.578 239.113 728.415 237.123C725.952 235.573 726.37 232.584 725.415 229.503Z" fill="#5383FF"/>
<path fill-rule="evenodd" clip-rule="evenodd" d="M763.33 203.923C763.33 199.82 785.83 141.205 785.83 141.205L786.801 141.484C786.801 141.484 774.83 203.923 774.83 207.44C771.698 209.498 769.493 213.533 766.33 211.543C763.866 209.993 764.284 207.004 763.33 203.923Z" fill="#5383FF"/>
<path fill-rule="evenodd" clip-rule="evenodd" d="M727.5 438.174C727.5 434.071 750 375.455 750 375.455L750.971 375.735C750.971 375.735 739 438.174 739 441.691C735.869 443.749 733.663 447.784 730.5 445.794C728.037 444.244 728.455 441.254 727.5 438.174Z" fill="#5383FF"/>
<path fill-rule="evenodd" clip-rule="evenodd" d="M765.415 412.594C765.415 408.491 787.915 349.876 787.915 349.876L788.886 350.155C788.886 350.155 776.915 412.594 776.915 416.111C773.784 418.169 771.578 422.204 768.415 420.214C765.952 418.664 766.37 415.674 765.415 412.594Z" fill="#5383FF"/>
<path fill-rule="evenodd" clip-rule="evenodd" d="M713.415 374.869C713.415 370.766 735.915 312.151 735.915 312.151L736.886 312.43C736.886 312.43 724.915 374.869 724.915 378.386C721.784 380.444 719.578 384.479 716.415 382.489C713.952 380.939 714.37 377.95 713.415 374.869Z" fill="#5383FF"/>
<path fill-rule="evenodd" clip-rule="evenodd" d="M751.33 349.289C751.33 345.186 773.83 286.571 773.83 286.571L774.801 286.851C774.801 286.851 762.83 349.289 762.83 352.806C759.698 354.864 757.493 358.9 754.33 356.909C751.866 355.359 752.284 352.37 751.33 349.289Z" fill="#5383FF"/>
<path fill-rule="evenodd" clip-rule="evenodd" d="M651.5 501.479C651.5 497.375 674 438.76 674 438.76L674.971 439.04C674.971 439.04 663 501.479 663 504.995C659.869 507.053 657.663 511.089 654.5 509.099C652.037 507.549 652.455 504.559 651.5 501.479Z" fill="#5383FF"/>
<path fill-rule="evenodd" clip-rule="evenodd" d="M689.415 475.899C689.415 471.796 711.915 413.18 711.915 413.18L712.886 413.46C712.886 413.46 700.915 475.899 700.915 479.416C697.784 481.474 695.578 485.509 692.415 483.519C689.952 481.969 690.37 478.979 689.415 475.899Z" fill="#5383FF"/>
<path fill-rule="evenodd" clip-rule="evenodd" d="M637.415 438.174C637.415 434.071 659.915 375.455 659.915 375.455L660.886 375.735C660.886 375.735 648.915 438.174 648.915 441.691C645.784 443.749 643.578 447.784 640.415 445.794C637.952 444.244 638.37 441.254 637.415 438.174Z" fill="#5383FF"/>
<path fill-rule="evenodd" clip-rule="evenodd" d="M675.33 412.594C675.33 408.491 697.83 349.876 697.83 349.876L698.801 350.155C698.801 350.155 686.83 412.594 686.83 416.111C683.698 418.169 681.493 422.204 678.33 420.214C675.866 418.664 676.284 415.674 675.33 412.594Z" fill="#5383FF"/>
<path fill-rule="evenodd" clip-rule="evenodd" d="M586.5 405.349C586.5 401.246 609 342.631 609 342.631L609.971 342.911C609.971 342.911 598 405.349 598 408.866C594.869 410.924 592.663 414.959 589.5 412.969C587.037 411.419 587.455 408.43 586.5 405.349Z" fill="#5383FF"/>
<path fill-rule="evenodd" clip-rule="evenodd" d="M624.415 379.77C624.415 375.666 646.915 317.051 646.915 317.051L647.886 317.331C647.886 317.331 635.915 379.769 635.915 383.286C632.783 385.344 630.578 389.38 627.415 387.389C624.951 385.84 625.37 382.85 624.415 379.77Z" fill="#5383FF"/>
<path fill-rule="evenodd" clip-rule="evenodd" d="M572.415 342.045C572.415 337.942 594.915 279.326 594.915 279.326L595.886 279.606C595.886 279.606 583.915 342.045 583.915 345.562C580.783 347.62 578.578 351.655 575.415 349.665C572.951 348.115 573.37 345.125 572.415 342.045Z" fill="#5383FF"/>
<path fill-rule="evenodd" clip-rule="evenodd" d="M610.33 316.465C610.33 312.362 632.83 253.746 632.83 253.746L633.801 254.026C633.801 254.026 621.829 316.465 621.829 319.982C618.698 322.04 616.493 326.075 613.33 324.085C610.866 322.535 611.284 319.545 610.33 316.465Z" fill="#5383FF"/>
<path fill-rule="evenodd" clip-rule="evenodd" d="M263.5 359.629C263.5 355.526 286 296.911 286 296.911L286.971 297.19C286.971 297.19 275 359.629 275 363.146C271.869 365.204 269.663 369.239 266.5 367.249C264.037 365.699 264.455 362.71 263.5 359.629Z" fill="#5383FF"/>
<path fill-rule="evenodd" clip-rule="evenodd" d="M301.415 334.049C301.415 329.946 323.915 271.331 323.915 271.331L324.886 271.611C324.886 271.611 312.915 334.049 312.915 337.566C309.784 339.624 307.578 343.66 304.415 341.669C301.952 340.119 302.37 337.13 301.415 334.049Z" fill="#5383FF"/>
<path fill-rule="evenodd" clip-rule="evenodd" d="M249.415 296.325C249.415 292.221 271.915 233.606 271.915 233.606L272.886 233.886C272.886 233.886 260.915 296.325 260.915 299.842C257.784 301.9 255.578 305.935 252.415 303.945C249.952 302.395 250.37 299.405 249.415 296.325Z" fill="#5383FF"/>
<path fill-rule="evenodd" clip-rule="evenodd" d="M287.33 270.745C287.33 266.642 309.83 208.026 309.83 208.026L310.801 208.306C310.801 208.306 298.83 270.745 298.83 274.262C295.698 276.32 293.493 280.355 290.33 278.365C287.866 276.815 288.284 273.825 287.33 270.745Z" fill="#5383FF"/>
<path fill-rule="evenodd" clip-rule="evenodd" d="M342.5 303.359C342.5 299.255 365 240.64 365 240.64L365.971 240.92C365.971 240.92 354 303.359 354 306.875C350.869 308.933 348.663 312.969 345.5 310.979C343.037 309.429 343.455 306.439 342.5 303.359Z" fill="#5383FF"/>
<path fill-rule="evenodd" clip-rule="evenodd" d="M380.415 277.779C380.415 273.676 402.915 215.06 402.915 215.06L403.886 215.34C403.886 215.34 391.915 277.779 391.915 281.296C388.784 283.354 386.578 287.389 383.415 285.399C380.952 283.849 381.37 280.859 380.415 277.779Z" fill="#5383FF"/>
<path fill-rule="evenodd" clip-rule="evenodd" d="M328.415 240.054C328.415 235.951 350.915 177.335 350.915 177.335L351.886 177.615C351.886 177.615 339.915 240.054 339.915 243.571C336.783 245.629 334.578 249.664 331.415 247.674C328.951 246.124 329.37 243.134 328.415 240.054Z" fill="#5383FF"/>
<path fill-rule="evenodd" clip-rule="evenodd" d="M366.33 214.474C366.33 210.371 388.83 151.756 388.83 151.756L389.801 152.035C389.801 152.035 377.83 214.474 377.83 217.991C374.698 220.049 372.493 224.084 369.33 222.094C366.866 220.544 367.284 217.554 366.33 214.474Z" fill="#5383FF"/>
<path fill-rule="evenodd" clip-rule="evenodd" d="M330.5 448.725C330.5 444.622 353 386.006 353 386.006L353.971 386.286C353.971 386.286 342 448.725 342 452.242C338.869 454.3 336.663 458.335 333.5 456.345C331.037 454.795 331.455 451.805 330.5 448.725Z" fill="#5383FF"/>
<path fill-rule="evenodd" clip-rule="evenodd" d="M368.415 423.145C368.415 419.042 390.915 360.426 390.915 360.426L391.886 360.706C391.886 360.706 379.915 423.145 379.915 426.662C376.784 428.72 374.578 432.755 371.415 430.765C368.952 429.215 369.37 426.225 368.415 423.145Z" fill="#5383FF"/>
<path fill-rule="evenodd" clip-rule="evenodd" d="M316.415 385.42C316.415 381.317 338.915 322.702 338.915 322.702L339.886 322.981C339.886 322.981 327.915 385.42 327.915 388.937C324.783 390.995 322.578 395.03 319.415 393.04C316.952 391.49 317.37 388.5 316.415 385.42Z" fill="#5383FF"/>
<path fill-rule="evenodd" clip-rule="evenodd" d="M354.33 359.84C354.33 355.737 376.83 297.122 376.83 297.122L377.801 297.401C377.801 297.401 365.83 359.84 365.83 363.357C362.698 365.415 360.493 369.45 357.33 367.46C354.866 365.91 355.284 362.921 354.33 359.84Z" fill="#5383FF"/>
<path fill-rule="evenodd" clip-rule="evenodd" d="M254.5 512.029C254.5 507.926 277 449.311 277 449.311L277.971 449.591C277.971 449.591 266 512.029 266 515.546C262.869 517.604 260.663 521.639 257.5 519.649C255.037 518.099 255.455 515.11 254.5 512.029Z" fill="#5383FF"/>
<path fill-rule="evenodd" clip-rule="evenodd" d="M292.415 486.45C292.415 482.346 314.915 423.731 314.915 423.731L315.886 424.011C315.886 424.011 303.915 486.449 303.915 489.966C300.784 492.024 298.578 496.06 295.415 494.069C292.952 492.52 293.37 489.53 292.415 486.45Z" fill="#5383FF"/>
<path fill-rule="evenodd" clip-rule="evenodd" d="M240.415 448.725C240.415 444.622 262.915 386.006 262.915 386.006L263.886 386.286C263.886 386.286 251.915 448.725 251.915 452.242C248.784 454.3 246.578 458.335 243.415 456.345C240.952 454.795 241.37 451.805 240.415 448.725Z" fill="#5383FF"/>
<path fill-rule="evenodd" clip-rule="evenodd" d="M278.33 423.145C278.33 419.042 300.83 360.426 300.83 360.426L301.801 360.706C301.801 360.706 289.83 423.145 289.83 426.662C286.698 428.72 284.493 432.755 281.33 430.765C278.866 429.215 279.284 426.225 278.33 423.145Z" fill="#5383FF"/>
<path fill-rule="evenodd" clip-rule="evenodd" d="M189.5 415.9C189.5 411.797 212 353.182 212 353.182L212.971 353.461C212.971 353.461 201 415.9 201 419.417C197.869 421.475 195.663 425.51 192.5 423.52C190.037 421.97 190.455 418.98 189.5 415.9Z" fill="#5383FF"/>
<path fill-rule="evenodd" clip-rule="evenodd" d="M227.415 390.32C227.415 386.217 249.915 327.602 249.915 327.602L250.886 327.881C250.886 327.881 238.915 390.32 238.915 393.837C235.783 395.895 233.578 399.93 230.415 397.94C227.952 396.39 228.37 393.401 227.415 390.32Z" fill="#5383FF"/>
<path fill-rule="evenodd" clip-rule="evenodd" d="M175.415 352.596C175.415 348.492 197.915 289.877 197.915 289.877L198.886 290.157C198.886 290.157 186.915 352.595 186.915 356.112C183.783 358.17 181.578 362.206 178.415 360.215C175.952 358.666 176.37 355.676 175.415 352.596Z" fill="#5383FF"/>
<path fill-rule="evenodd" clip-rule="evenodd" d="M213.33 327.016C213.33 322.913 235.83 264.297 235.83 264.297L236.801 264.577C236.801 264.577 224.83 327.016 224.83 330.533C221.698 332.591 219.493 336.626 216.33 334.636C213.866 333.086 214.284 330.096 213.33 327.016Z" fill="#5383FF"/>
<path fill-rule="evenodd" clip-rule="evenodd" d="M33.5 393.626C33.5 389.523 56.0001 330.908 56.0001 330.908L56.9712 331.187C56.9712 331.187 45 393.626 45 397.143C41.8687 399.201 39.6632 403.236 36.5001 401.246C34.0368 399.696 34.4549 396.707 33.5 393.626Z" fill="#5383FF"/>
<path fill-rule="evenodd" clip-rule="evenodd" d="M71.4148 368.046C71.4148 363.943 93.9149 305.328 93.9149 305.328L94.886 305.608C94.886 305.608 82.9148 368.046 82.9148 371.563C79.7835 373.621 77.5779 377.656 74.4149 375.666C71.9516 374.116 72.3697 371.127 71.4148 368.046Z" fill="#5383FF"/>
<path fill-rule="evenodd" clip-rule="evenodd" d="M19.4148 330.322C19.4148 326.218 41.9149 267.603 41.9149 267.603L42.886 267.883C42.886 267.883 30.9148 330.322 30.9148 333.838C27.7835 335.896 25.5779 339.932 22.4149 337.942C19.9516 336.392 20.3697 333.402 19.4148 330.322Z" fill="#5383FF"/>
<path fill-rule="evenodd" clip-rule="evenodd" d="M57.3296 304.742C57.3296 300.639 79.8297 242.023 79.8297 242.023L80.8008 242.303C80.8008 242.303 68.8296 304.742 68.8296 308.259C65.6983 310.317 63.4927 314.352 60.3297 312.362C57.8664 310.812 58.2845 307.822 57.3296 304.742Z" fill="#5383FF"/>
<path fill-rule="evenodd" clip-rule="evenodd" d="M112.5 337.356C112.5 333.252 135 274.637 135 274.637L135.971 274.917C135.971 274.917 124 337.355 124 340.872C120.869 342.93 118.663 346.966 115.5 344.975C113.037 343.426 113.455 340.436 112.5 337.356Z" fill="#5383FF"/>
<path fill-rule="evenodd" clip-rule="evenodd" d="M150.415 311.776C150.415 307.673 172.915 249.057 172.915 249.057L173.886 249.337C173.886 249.337 161.915 311.776 161.915 315.293C158.783 317.351 156.578 321.386 153.415 319.396C150.952 317.846 151.37 314.856 150.415 311.776Z" fill="#5383FF"/>
<path fill-rule="evenodd" clip-rule="evenodd" d="M98.4148 274.051C98.4148 269.948 120.915 211.332 120.915 211.332L121.886 211.612C121.886 211.612 109.915 274.051 109.915 277.568C106.783 279.626 104.578 283.661 101.415 281.671C98.9515 280.121 99.3696 277.131 98.4148 274.051Z" fill="#5383FF"/>
<path fill-rule="evenodd" clip-rule="evenodd" d="M136.33 248.471C136.33 244.368 158.83 185.753 158.83 185.753L159.801 186.032C159.801 186.032 147.83 248.471 147.83 251.988C144.698 254.046 142.493 258.081 139.33 256.091C136.866 254.541 137.284 251.551 136.33 248.471Z" fill="#5383FF"/>
<path fill-rule="evenodd" clip-rule="evenodd" d="M100.5 482.722C100.5 478.619 123 420.003 123 420.003L123.971 420.283C123.971 420.283 112 482.722 112 486.239C108.869 488.297 106.663 492.332 103.5 490.342C101.037 488.792 101.455 485.802 100.5 482.722Z" fill="#5383FF"/>
<path fill-rule="evenodd" clip-rule="evenodd" d="M138.415 457.142C138.415 453.039 160.915 394.423 160.915 394.423L161.886 394.703C161.886 394.703 149.915 457.142 149.915 460.659C146.783 462.717 144.578 466.752 141.415 464.762C138.952 463.212 139.37 460.222 138.415 457.142Z" fill="#5383FF"/>
<path fill-rule="evenodd" clip-rule="evenodd" d="M86.4148 419.417C86.4148 415.314 108.915 356.699 108.915 356.699L109.886 356.978C109.886 356.978 97.9147 419.417 97.9147 422.934C94.7835 424.992 92.5779 429.027 89.4149 427.037C86.9515 425.487 87.3696 422.497 86.4148 419.417Z" fill="#5383FF"/>
<path fill-rule="evenodd" clip-rule="evenodd" d="M124.33 393.837C124.33 389.734 146.83 331.119 146.83 331.119L147.801 331.398C147.801 331.398 135.83 393.837 135.83 397.354C132.698 399.412 130.493 403.447 127.33 401.457C124.866 399.907 125.284 396.918 124.33 393.837Z" fill="#5383FF"/>
<path fill-rule="evenodd" clip-rule="evenodd" d="M24.5 546.026C24.5 541.923 47.0001 483.308 47.0001 483.308L47.9712 483.587C47.9712 483.587 36 546.026 36 549.543C32.8687 551.601 30.6632 555.636 27.5001 553.646C25.0368 552.096 25.4549 549.107 24.5 546.026Z" fill="#5383FF"/>
<path fill-rule="evenodd" clip-rule="evenodd" d="M62.4148 520.446C62.4148 516.343 84.9149 457.728 84.9149 457.728L85.886 458.008C85.886 458.008 73.9148 520.446 73.9148 523.963C70.7835 526.021 68.5779 530.057 65.4149 528.066C62.9516 526.516 63.3697 523.527 62.4148 520.446Z" fill="#5383FF"/>
<path fill-rule="evenodd" clip-rule="evenodd" d="M10.4148 482.722C10.4148 478.619 32.9149 420.003 32.9149 420.003L33.886 420.283C33.886 420.283 21.9148 482.722 21.9148 486.239C18.7835 488.297 16.5779 492.332 13.4149 490.342C10.9516 488.792 11.3697 485.802 10.4148 482.722Z" fill="#5383FF"/>
<path fill-rule="evenodd" clip-rule="evenodd" d="M48.3296 457.142C48.3296 453.039 70.8297 394.423 70.8297 394.423L71.8008 394.703C71.8008 394.703 59.8296 457.142 59.8296 460.659C56.6983 462.717 54.4927 466.752 51.3297 464.762C48.8664 463.212 49.2845 460.222 48.3296 457.142Z" fill="#5383FF"/>
<path fill-rule="evenodd" clip-rule="evenodd" d="M-2.58523 424.317C-2.58523 420.214 19.9148 361.599 19.9148 361.599L20.886 361.878C20.886 361.878 8.91474 424.317 8.91474 427.834C5.78347 429.892 3.57789 433.927 0.414858 431.937C-2.04849 430.387 -1.6304 427.398 -2.58523 424.317Z" fill="#5383FF"/>
<path fill-rule="evenodd" clip-rule="evenodd" d="M-16.6704 361.013C-16.6704 356.909 5.82962 298.294 5.82962 298.294L6.80075 298.574C6.80075 298.574 -5.17046 361.013 -5.17046 364.529C-8.30173 366.588 -10.5073 370.623 -13.6703 368.633C-16.1337 367.083 -15.7156 364.093 -16.6704 361.013Z" fill="#5383FF"/>
<path fill-rule="evenodd" clip-rule="evenodd" d="M1275.5 306.875C1275.5 302.772 1298 244.157 1298 244.157L1298.97 244.437C1298.97 244.437 1287 306.875 1287 310.392C1283.87 312.45 1281.66 316.486 1278.5 314.495C1276.04 312.945 1276.45 309.956 1275.5 306.875Z" fill="#5383FF"/>
<path fill-rule="evenodd" clip-rule="evenodd" d="M1261.41 243.571C1261.41 239.468 1283.91 180.852 1283.91 180.852L1284.89 181.132C1284.89 181.132 1272.91 243.571 1272.91 247.088C1269.78 249.146 1267.58 253.181 1264.41 251.191C1261.95 249.641 1262.37 246.651 1261.41 243.571Z" fill="#5383FF"/>
<path fill-rule="evenodd" clip-rule="evenodd" d="M1266.5 459.275C1266.5 455.172 1289 396.557 1289 396.557L1289.97 396.837C1289.97 396.837 1278 459.275 1278 462.792C1274.87 464.85 1272.66 468.886 1269.5 466.895C1267.04 465.346 1267.45 462.356 1266.5 459.275Z" fill="#5383FF"/>
<path fill-rule="evenodd" clip-rule="evenodd" d="M1252.41 395.971C1252.41 391.868 1274.91 333.252 1274.91 333.252L1275.89 333.532C1275.89 333.532 1263.91 395.971 1263.91 399.488C1260.78 401.546 1258.58 405.581 1255.41 403.591C1252.95 402.041 1253.37 399.051 1252.41 395.971Z" fill="#5383FF"/>
<path fill-rule="evenodd" clip-rule="evenodd" d="M1201.5 363.146C1201.5 359.043 1224 300.428 1224 300.428L1224.97 300.707C1224.97 300.707 1213 363.146 1213 366.663C1209.87 368.721 1207.66 372.756 1204.5 370.766C1202.04 369.216 1202.45 366.227 1201.5 363.146Z" fill="#5383FF"/>
<path fill-rule="evenodd" clip-rule="evenodd" d="M1239.41 337.566C1239.41 333.463 1261.91 274.848 1261.91 274.848L1262.89 275.128C1262.89 275.128 1250.91 337.566 1250.91 341.083C1247.78 343.141 1245.58 347.177 1242.41 345.186C1239.95 343.636 1240.37 340.647 1239.41 337.566Z" fill="#5383FF"/>
<path fill-rule="evenodd" clip-rule="evenodd" d="M1187.41 299.842C1187.41 295.738 1209.91 237.123 1209.91 237.123L1210.89 237.403C1210.89 237.403 1198.91 299.842 1198.91 303.358C1195.78 305.416 1193.58 309.452 1190.41 307.462C1187.95 305.912 1188.37 302.922 1187.41 299.842Z" fill="#5383FF"/>
<path fill-rule="evenodd" clip-rule="evenodd" d="M1225.33 274.262C1225.33 270.159 1247.83 211.543 1247.83 211.543L1248.8 211.823C1248.8 211.823 1236.83 274.262 1236.83 277.779C1233.7 279.837 1231.49 283.872 1228.33 281.882C1225.87 280.332 1226.28 277.342 1225.33 274.262Z" fill="#5383FF"/>
<path fill-rule="evenodd" clip-rule="evenodd" d="M930.5 317.426C930.5 313.323 953 254.708 953 254.708L953.971 254.987C953.971 254.987 942 317.426 942 320.943C938.869 323.001 936.663 327.036 933.5 325.046C931.037 323.496 931.455 320.507 930.5 317.426Z" fill="#5383FF"/>
<path fill-rule="evenodd" clip-rule="evenodd" d="M968.415 291.846C968.415 287.743 990.915 229.128 990.915 229.128L991.886 229.408C991.886 229.408 979.915 291.846 979.915 295.363C976.784 297.421 974.578 301.456 971.415 299.466C968.952 297.916 969.37 294.927 968.415 291.846Z" fill="#5383FF"/>
<path fill-rule="evenodd" clip-rule="evenodd" d="M916.415 254.122C916.415 250.018 938.915 191.403 938.915 191.403L939.886 191.683C939.886 191.683 927.915 254.122 927.915 257.638C924.784 259.696 922.578 263.732 919.415 261.742C916.952 260.192 917.37 257.202 916.415 254.122Z" fill="#5383FF"/>
<path fill-rule="evenodd" clip-rule="evenodd" d="M954.33 228.542C954.33 224.439 976.83 165.823 976.83 165.823L977.801 166.103C977.801 166.103 965.83 228.542 965.83 232.059C962.698 234.117 960.493 238.152 957.33 236.162C954.866 234.612 955.284 231.622 954.33 228.542Z" fill="#5383FF"/>
<path fill-rule="evenodd" clip-rule="evenodd" d="M1009.5 261.155C1009.5 257.052 1032 198.437 1032 198.437L1032.97 198.717C1032.97 198.717 1021 261.155 1021 264.672C1017.87 266.73 1015.66 270.766 1012.5 268.775C1010.04 267.225 1010.45 264.236 1009.5 261.155Z" fill="#5383FF"/>
<path fill-rule="evenodd" clip-rule="evenodd" d="M1047.41 235.576C1047.41 231.473 1069.91 172.857 1069.91 172.857L1070.89 173.137C1070.89 173.137 1058.91 235.576 1058.91 239.093C1055.78 241.151 1053.58 245.186 1050.41 243.196C1047.95 241.646 1048.37 238.656 1047.41 235.576Z" fill="#5383FF"/>
<path fill-rule="evenodd" clip-rule="evenodd" d="M995.415 197.851C995.415 193.748 1017.91 135.132 1017.91 135.132L1018.89 135.412C1018.89 135.412 1006.91 197.851 1006.91 201.368C1003.78 203.426 1001.58 207.461 998.415 205.471C995.952 203.921 996.37 200.931 995.415 197.851Z" fill="#5383FF"/>
<path fill-rule="evenodd" clip-rule="evenodd" d="M1033.33 172.271C1033.33 168.168 1055.83 109.553 1055.83 109.553L1056.8 109.832C1056.8 109.832 1044.83 172.271 1044.83 175.788C1041.7 177.846 1039.49 181.881 1036.33 179.891C1033.87 178.341 1034.28 175.351 1033.33 172.271Z" fill="#5383FF"/>
<path fill-rule="evenodd" clip-rule="evenodd" d="M997.5 406.522C997.5 402.419 1020 343.803 1020 343.803L1020.97 344.083C1020.97 344.083 1009 406.522 1009 410.039C1005.87 412.097 1003.66 416.132 1000.5 414.142C998.037 412.592 998.455 409.602 997.5 406.522Z" fill="#5383FF"/>
<path fill-rule="evenodd" clip-rule="evenodd" d="M1035.41 380.942C1035.41 376.839 1057.91 318.223 1057.91 318.223L1058.89 318.503C1058.89 318.503 1046.91 380.942 1046.91 384.459C1043.78 386.517 1041.58 390.552 1038.41 388.562C1035.95 387.012 1036.37 384.022 1035.41 380.942Z" fill="#5383FF"/>
<path fill-rule="evenodd" clip-rule="evenodd" d="M983.415 343.217C983.415 339.114 1005.91 280.499 1005.91 280.499L1006.89 280.778C1006.89 280.778 994.915 343.217 994.915 346.734C991.784 348.792 989.578 352.827 986.415 350.837C983.952 349.287 984.37 346.297 983.415 343.217Z" fill="#5383FF"/>
<path fill-rule="evenodd" clip-rule="evenodd" d="M1021.33 317.637C1021.33 313.534 1043.83 254.919 1043.83 254.919L1044.8 255.198C1044.8 255.198 1032.83 317.637 1032.83 321.154C1029.7 323.212 1027.49 327.247 1024.33 325.257C1021.87 323.707 1022.28 320.718 1021.33 317.637Z" fill="#5383FF"/>
<path fill-rule="evenodd" clip-rule="evenodd" d="M921.5 469.826C921.5 465.723 944 407.108 944 407.108L944.971 407.387C944.971 407.387 933 469.826 933 473.343C929.869 475.401 927.663 479.436 924.5 477.446C922.037 475.896 922.455 472.907 921.5 469.826Z" fill="#5383FF"/>
<path fill-rule="evenodd" clip-rule="evenodd" d="M959.415 444.246C959.415 440.143 981.915 381.528 981.915 381.528L982.886 381.808C982.886 381.808 970.915 444.246 970.915 447.763C967.784 449.821 965.578 453.856 962.415 451.866C959.952 450.316 960.37 447.327 959.415 444.246Z" fill="#5383FF"/>
<path fill-rule="evenodd" clip-rule="evenodd" d="M907.415 406.522C907.415 402.419 929.915 343.803 929.915 343.803L930.886 344.083C930.886 344.083 918.915 406.522 918.915 410.039C915.784 412.097 913.578 416.132 910.415 414.142C907.952 412.592 908.37 409.602 907.415 406.522Z" fill="#5383FF"/>
<path fill-rule="evenodd" clip-rule="evenodd" d="M945.33 380.942C945.33 376.839 967.83 318.223 967.83 318.223L968.801 318.503C968.801 318.503 956.83 380.942 956.83 384.459C953.698 386.517 951.493 390.552 948.33 388.562C945.866 387.012 946.284 384.022 945.33 380.942Z" fill="#5383FF"/>
<path fill-rule="evenodd" clip-rule="evenodd" d="M856.5 373.697C856.5 369.594 879 310.979 879 310.979L879.971 311.258C879.971 311.258 868 373.697 868 377.214C864.869 379.272 862.663 383.307 859.5 381.317C857.037 379.767 857.455 376.777 856.5 373.697Z" fill="#5383FF"/>
<path fill-rule="evenodd" clip-rule="evenodd" d="M894.415 348.117C894.415 344.014 916.915 285.399 916.915 285.399L917.886 285.678C917.886 285.678 905.915 348.117 905.915 351.634C902.783 353.692 900.578 357.727 897.415 355.737C894.951 354.187 895.37 351.198 894.415 348.117Z" fill="#5383FF"/>
<path fill-rule="evenodd" clip-rule="evenodd" d="M842.415 310.392C842.415 306.289 864.915 247.674 864.915 247.674L865.886 247.954C865.886 247.954 853.915 310.392 853.915 313.909C850.783 315.967 848.578 320.002 845.415 318.012C842.951 316.462 843.37 313.473 842.415 310.392Z" fill="#5383FF"/>
<path fill-rule="evenodd" clip-rule="evenodd" d="M880.33 284.813C880.33 280.709 902.83 222.094 902.83 222.094L903.801 222.374C903.801 222.374 891.829 284.813 891.829 288.329C888.698 290.387 886.493 294.423 883.33 292.432C880.866 290.883 881.284 287.893 880.33 284.813Z" fill="#5383FF"/>
<path fill-rule="evenodd" clip-rule="evenodd" d="M713.5 636.429C713.5 632.326 736 573.711 736 573.711L736.971 573.99C736.971 573.99 725 636.429 725 639.946C721.869 642.004 719.663 646.039 716.5 644.049C714.037 642.499 714.455 639.51 713.5 636.429Z" fill="#5383FF"/>
<path fill-rule="evenodd" clip-rule="evenodd" d="M751.415 610.849C751.415 606.746 773.915 548.131 773.915 548.131L774.886 548.411C774.886 548.411 762.915 610.849 762.915 614.366C759.784 616.424 757.578 620.46 754.415 618.469C751.952 616.919 752.37 613.93 751.415 610.849Z" fill="#5383FF"/>
<path fill-rule="evenodd" clip-rule="evenodd" d="M699.415 573.125C699.415 569.021 721.915 510.406 721.915 510.406L722.886 510.686C722.886 510.686 710.915 573.125 710.915 576.641C707.784 578.7 705.578 582.735 702.415 580.745C699.952 579.195 700.37 576.205 699.415 573.125Z" fill="#5383FF"/>
<path fill-rule="evenodd" clip-rule="evenodd" d="M737.33 547.545C737.33 543.442 759.83 484.826 759.83 484.826L760.801 485.106C760.801 485.106 748.83 547.545 748.83 551.062C745.698 553.12 743.493 557.155 740.33 555.165C737.866 553.615 738.284 550.625 737.33 547.545Z" fill="#5383FF"/>
<path fill-rule="evenodd" clip-rule="evenodd" d="M792.5 580.159C792.5 576.055 815 517.44 815 517.44L815.971 517.72C815.971 517.72 804 580.159 804 583.675C800.869 585.733 798.663 589.769 795.5 587.778C793.037 586.229 793.455 583.239 792.5 580.159Z" fill="#5383FF"/>
<path fill-rule="evenodd" clip-rule="evenodd" d="M830.415 554.579C830.415 550.476 852.915 491.86 852.915 491.86L853.886 492.14C853.886 492.14 841.915 554.579 841.915 558.096C838.784 560.154 836.578 564.189 833.415 562.199C830.952 560.649 831.37 557.659 830.415 554.579Z" fill="#5383FF"/>
<path fill-rule="evenodd" clip-rule="evenodd" d="M778.415 516.854C778.415 512.751 800.915 454.135 800.915 454.135L801.886 454.415C801.886 454.415 789.915 516.854 789.915 520.371C786.784 522.429 784.578 526.464 781.415 524.474C778.952 522.924 779.37 519.934 778.415 516.854Z" fill="#5383FF"/>
<path fill-rule="evenodd" clip-rule="evenodd" d="M816.33 491.274C816.33 487.171 838.83 428.556 838.83 428.556L839.801 428.835C839.801 428.835 827.83 491.274 827.83 494.791C824.698 496.849 822.493 500.884 819.33 498.894C816.866 497.344 817.284 494.354 816.33 491.274Z" fill="#5383FF"/>
<path fill-rule="evenodd" clip-rule="evenodd" d="M780.5 725.525C780.5 721.422 803 662.806 803 662.806L803.971 663.086C803.971 663.086 792 725.525 792 729.042C788.869 731.1 786.663 735.135 783.5 733.145C781.037 731.595 781.455 728.605 780.5 725.525Z" fill="#5383FF"/>
<path fill-rule="evenodd" clip-rule="evenodd" d="M818.415 699.945C818.415 695.842 840.915 637.226 840.915 637.226L841.886 637.506C841.886 637.506 829.915 699.945 829.915 703.462C826.784 705.52 824.578 709.555 821.415 707.565C818.952 706.015 819.37 703.025 818.415 699.945Z" fill="#5383FF"/>
<path fill-rule="evenodd" clip-rule="evenodd" d="M766.415 662.22C766.415 658.117 788.915 599.502 788.915 599.502L789.886 599.781C789.886 599.781 777.915 662.22 777.915 665.737C774.784 667.795 772.578 671.83 769.415 669.84C766.952 668.29 767.37 665.301 766.415 662.22Z" fill="#5383FF"/>
<path fill-rule="evenodd" clip-rule="evenodd" d="M804.33 636.64C804.33 632.537 826.83 573.922 826.83 573.922L827.801 574.201C827.801 574.201 815.83 636.64 815.83 640.157C812.698 642.215 810.493 646.25 807.33 644.26C804.866 642.71 805.284 639.721 804.33 636.64Z" fill="#5383FF"/>
<path fill-rule="evenodd" clip-rule="evenodd" d="M704.5 788.829C704.5 784.726 727 726.111 727 726.111L727.971 726.391C727.971 726.391 716 788.829 716 792.346C712.869 794.404 710.663 798.439 707.5 796.449C705.037 794.899 705.455 791.91 704.5 788.829Z" fill="#5383FF"/>
<path fill-rule="evenodd" clip-rule="evenodd" d="M742.415 763.25C742.415 759.146 764.915 700.531 764.915 700.531L765.886 700.811C765.886 700.811 753.915 763.25 753.915 766.766C750.784 768.824 748.578 772.86 745.415 770.869C742.952 769.32 743.37 766.33 742.415 763.25Z" fill="#5383FF"/>
<path fill-rule="evenodd" clip-rule="evenodd" d="M690.415 725.525C690.415 721.422 712.915 662.806 712.915 662.806L713.886 663.086C713.886 663.086 701.915 725.525 701.915 729.042C698.784 731.1 696.578 735.135 693.415 733.145C690.952 731.595 691.37 728.605 690.415 725.525Z" fill="#5383FF"/>
<path fill-rule="evenodd" clip-rule="evenodd" d="M728.33 699.945C728.33 695.842 750.83 637.226 750.83 637.226L751.801 637.506C751.801 637.506 739.83 699.945 739.83 703.462C736.698 705.52 734.493 709.555 731.33 707.565C728.866 706.015 729.284 703.025 728.33 699.945Z" fill="#5383FF"/>
<path fill-rule="evenodd" clip-rule="evenodd" d="M639.5 692.7C639.5 688.597 662 629.982 662 629.982L662.971 630.261C662.971 630.261 651 692.7 651 696.217C647.869 698.275 645.663 702.31 642.5 700.32C640.037 698.77 640.455 695.78 639.5 692.7Z" fill="#5383FF"/>
<path fill-rule="evenodd" clip-rule="evenodd" d="M677.415 667.12C677.415 663.017 699.915 604.402 699.915 604.402L700.886 604.681C700.886 604.681 688.915 667.12 688.915 670.637C685.783 672.695 683.578 676.73 680.415 674.74C677.951 673.19 678.37 670.201 677.415 667.12Z" fill="#5383FF"/>
<path fill-rule="evenodd" clip-rule="evenodd" d="M625.415 629.395C625.415 625.292 647.915 566.677 647.915 566.677L648.886 566.957C648.886 566.957 636.915 629.395 636.915 632.912C633.783 634.97 631.578 639.006 628.415 637.015C625.951 635.466 626.37 632.476 625.415 629.395Z" fill="#5383FF"/>
<path fill-rule="evenodd" clip-rule="evenodd" d="M663.33 603.816C663.33 599.713 685.83 541.097 685.83 541.097L686.801 541.377C686.801 541.377 674.829 603.816 674.829 607.333C671.698 609.391 669.493 613.426 666.33 611.436C663.866 609.886 664.284 606.896 663.33 603.816Z" fill="#5383FF"/>
<path fill-rule="evenodd" clip-rule="evenodd" d="M1114.5 199.429C1114.5 195.326 1137 136.711 1137 136.711L1137.97 136.99C1137.97 136.99 1126 199.429 1126 202.946C1122.87 205.004 1120.66 209.039 1117.5 207.049C1115.04 205.499 1115.45 202.51 1114.5 199.429Z" fill="#5383FF"/>
<path fill-rule="evenodd" clip-rule="evenodd" d="M1152.41 173.849C1152.41 169.746 1174.91 111.131 1174.91 111.131L1175.89 111.411C1175.89 111.411 1163.91 173.849 1163.91 177.366C1160.78 179.424 1158.58 183.46 1155.41 181.469C1152.95 179.919 1153.37 176.93 1152.41 173.849Z" fill="#5383FF"/>
<path fill-rule="evenodd" clip-rule="evenodd" d="M1100.41 136.125C1100.41 132.021 1122.91 73.4062 1122.91 73.4062L1123.89 73.6858C1123.89 73.6858 1111.91 136.125 1111.91 139.641C1108.78 141.7 1106.58 145.735 1103.41 143.745C1100.95 142.195 1101.37 139.205 1100.41 136.125Z" fill="#5383FF"/>
<path fill-rule="evenodd" clip-rule="evenodd" d="M1138.33 110.545C1138.33 106.442 1160.83 47.8263 1160.83 47.8263L1161.8 48.1059C1161.8 48.1059 1149.83 110.545 1149.83 114.062C1146.7 116.12 1144.49 120.155 1141.33 118.165C1138.87 116.615 1139.28 113.625 1138.33 110.545Z" fill="#5383FF"/>
<path fill-rule="evenodd" clip-rule="evenodd" d="M1193.5 143.159C1193.5 139.055 1216 80.4401 1216 80.4401L1216.97 80.7197C1216.97 80.7197 1205 143.159 1205 146.675C1201.87 148.733 1199.66 152.769 1196.5 150.778C1194.04 149.229 1194.45 146.239 1193.5 143.159Z" fill="#5383FF"/>
<path fill-rule="evenodd" clip-rule="evenodd" d="M1231.41 117.579C1231.41 113.476 1253.91 54.8602 1253.91 54.8602L1254.89 55.1398C1254.89 55.1398 1242.91 117.579 1242.91 121.096C1239.78 123.154 1237.58 127.189 1234.41 125.199C1231.95 123.649 1232.37 120.659 1231.41 117.579Z" fill="#5383FF"/>
<path fill-rule="evenodd" clip-rule="evenodd" d="M1179.41 79.8539C1179.41 75.7508 1201.91 17.1355 1201.91 17.1355L1202.89 17.4151C1202.89 17.4151 1190.91 79.8539 1190.91 83.3708C1187.78 85.4288 1185.58 89.464 1182.41 87.4739C1179.95 85.9239 1180.37 82.9343 1179.41 79.8539Z" fill="#5383FF"/>
<path fill-rule="evenodd" clip-rule="evenodd" d="M1217.33 54.2741C1217.33 50.1709 1239.83 -8.4444 1239.83 -8.4444L1240.8 -8.16478C1240.8 -8.16478 1228.83 54.274 1228.83 57.7909C1225.7 59.849 1223.49 63.8842 1220.33 61.894C1217.87 60.3441 1218.28 57.3544 1217.33 54.2741Z" fill="#5383FF"/>
<path fill-rule="evenodd" clip-rule="evenodd" d="M1181.5 288.525C1181.5 284.422 1204 225.806 1204 225.806L1204.97 226.086C1204.97 226.086 1193 288.525 1193 292.042C1189.87 294.1 1187.66 298.135 1184.5 296.145C1182.04 294.595 1182.45 291.605 1181.5 288.525Z" fill="#5383FF"/>
<path fill-rule="evenodd" clip-rule="evenodd" d="M1219.41 262.945C1219.41 258.842 1241.91 200.226 1241.91 200.226L1242.89 200.506C1242.89 200.506 1230.91 262.945 1230.91 266.462C1227.78 268.52 1225.58 272.555 1222.41 270.565C1219.95 269.015 1220.37 266.025 1219.41 262.945Z" fill="#5383FF"/>
<path fill-rule="evenodd" clip-rule="evenodd" d="M1167.41 225.22C1167.41 221.117 1189.91 162.502 1189.91 162.502L1190.89 162.781C1190.89 162.781 1178.91 225.22 1178.91 228.737C1175.78 230.795 1173.58 234.83 1170.41 232.84C1167.95 231.29 1168.37 228.3 1167.41 225.22Z" fill="#5383FF"/>
<path fill-rule="evenodd" clip-rule="evenodd" d="M1205.33 199.64C1205.33 195.537 1227.83 136.922 1227.83 136.922L1228.8 137.201C1228.8 137.201 1216.83 199.64 1216.83 203.157C1213.7 205.215 1211.49 209.25 1208.33 207.26C1205.87 205.71 1206.28 202.721 1205.33 199.64Z" fill="#5383FF"/>
<path fill-rule="evenodd" clip-rule="evenodd" d="M1105.5 351.829C1105.5 347.726 1128 289.111 1128 289.111L1128.97 289.39C1128.97 289.39 1117 351.829 1117 355.346C1113.87 357.404 1111.66 361.439 1108.5 359.449C1106.04 357.899 1106.45 354.91 1105.5 351.829Z" fill="#5383FF"/>
<path fill-rule="evenodd" clip-rule="evenodd" d="M1143.41 326.249C1143.41 322.146 1165.91 263.531 1165.91 263.531L1166.89 263.811C1166.89 263.811 1154.91 326.249 1154.91 329.766C1151.78 331.824 1149.58 335.86 1146.41 333.869C1143.95 332.32 1144.37 329.33 1143.41 326.249Z" fill="#5383FF"/>
<path fill-rule="evenodd" clip-rule="evenodd" d="M1091.41 288.525C1091.41 284.422 1113.91 225.806 1113.91 225.806L1114.89 226.086C1114.89 226.086 1102.91 288.525 1102.91 292.042C1099.78 294.1 1097.58 298.135 1094.41 296.145C1091.95 294.595 1092.37 291.605 1091.41 288.525Z" fill="#5383FF"/>
<path fill-rule="evenodd" clip-rule="evenodd" d="M1129.33 262.945C1129.33 258.842 1151.83 200.226 1151.83 200.226L1152.8 200.506C1152.8 200.506 1140.83 262.945 1140.83 266.462C1137.7 268.52 1135.49 272.555 1132.33 270.565C1129.87 269.015 1130.28 266.025 1129.33 262.945Z" fill="#5383FF"/>
<path fill-rule="evenodd" clip-rule="evenodd" d="M1040.5 255.7C1040.5 251.597 1063 192.982 1063 192.982L1063.97 193.261C1063.97 193.261 1052 255.7 1052 259.217C1048.87 261.275 1046.66 265.31 1043.5 263.32C1041.04 261.77 1041.45 258.78 1040.5 255.7Z" fill="#5383FF"/>
<path fill-rule="evenodd" clip-rule="evenodd" d="M1078.41 230.12C1078.41 226.017 1100.91 167.402 1100.91 167.402L1101.89 167.681C1101.89 167.681 1089.91 230.12 1089.91 233.637C1086.78 235.695 1084.58 239.73 1081.41 237.74C1078.95 236.19 1079.37 233.201 1078.41 230.12Z" fill="#5383FF"/>
<path fill-rule="evenodd" clip-rule="evenodd" d="M1026.41 192.395C1026.41 188.292 1048.91 129.677 1048.91 129.677L1049.89 129.957C1049.89 129.957 1037.91 192.395 1037.91 195.912C1034.78 197.97 1032.58 202.006 1029.41 200.015C1026.95 198.465 1027.37 195.476 1026.41 192.395Z" fill="#5383FF"/>
<path fill-rule="evenodd" clip-rule="evenodd" d="M1064.33 166.816C1064.33 162.712 1086.83 104.097 1086.83 104.097L1087.8 104.377C1087.8 104.377 1075.83 166.816 1075.83 170.333C1072.7 172.391 1070.49 176.426 1067.33 174.436C1064.87 172.886 1065.28 169.896 1064.33 166.816Z" fill="#5383FF"/>
<path fill-rule="evenodd" clip-rule="evenodd" d="M421.5 353.429C421.5 349.326 444 290.711 444 290.711L444.971 290.99C444.971 290.99 433 353.429 433 356.946C429.869 359.004 427.663 363.039 424.5 361.049C422.037 359.499 422.455 356.51 421.5 353.429Z" fill="#5383FF"/>
<path fill-rule="evenodd" clip-rule="evenodd" d="M459.415 327.849C459.415 323.746 481.915 265.131 481.915 265.131L482.886 265.411C482.886 265.411 470.915 327.849 470.915 331.366C467.784 333.424 465.578 337.46 462.415 335.469C459.952 333.919 460.37 330.93 459.415 327.849Z" fill="#5383FF"/>
<path fill-rule="evenodd" clip-rule="evenodd" d="M407.415 290.125C407.415 286.021 429.915 227.406 429.915 227.406L430.886 227.686C430.886 227.686 418.915 290.125 418.915 293.641C415.784 295.7 413.578 299.735 410.415 297.745C407.952 296.195 408.37 293.205 407.415 290.125Z" fill="#5383FF"/>
<path fill-rule="evenodd" clip-rule="evenodd" d="M445.33 264.545C445.33 260.442 467.83 201.826 467.83 201.826L468.801 202.106C468.801 202.106 456.83 264.545 456.83 268.062C453.698 270.12 451.493 274.155 448.33 272.165C445.866 270.615 446.284 267.625 445.33 264.545Z" fill="#5383FF"/>
<path fill-rule="evenodd" clip-rule="evenodd" d="M500.5 297.159C500.5 293.055 523 234.44 523 234.44L523.971 234.72C523.971 234.72 512 297.159 512 300.675C508.869 302.733 506.663 306.769 503.5 304.778C501.037 303.229 501.455 300.239 500.5 297.159Z" fill="#5383FF"/>
<path fill-rule="evenodd" clip-rule="evenodd" d="M538.415 271.579C538.415 267.476 560.915 208.86 560.915 208.86L561.886 209.14C561.886 209.14 549.915 271.579 549.915 275.096C546.784 277.154 544.578 281.189 541.415 279.199C538.952 277.649 539.37 274.659 538.415 271.579Z" fill="#5383FF"/>
<path fill-rule="evenodd" clip-rule="evenodd" d="M486.415 233.854C486.415 229.751 508.915 171.135 508.915 171.135L509.886 171.415C509.886 171.415 497.915 233.854 497.915 237.371C494.784 239.429 492.578 243.464 489.415 241.474C486.952 239.924 487.37 236.934 486.415 233.854Z" fill="#5383FF"/>
<path fill-rule="evenodd" clip-rule="evenodd" d="M524.33 208.274C524.33 204.171 546.83 145.556 546.83 145.556L547.801 145.835C547.801 145.835 535.83 208.274 535.83 211.791C532.698 213.849 530.493 217.884 527.33 215.894C524.866 214.344 525.284 211.354 524.33 208.274Z" fill="#5383FF"/>
<path fill-rule="evenodd" clip-rule="evenodd" d="M488.5 442.525C488.5 438.422 511 379.806 511 379.806L511.971 380.086C511.971 380.086 500 442.525 500 446.042C496.869 448.1 494.663 452.135 491.5 450.145C489.037 448.595 489.455 445.605 488.5 442.525Z" fill="#5383FF"/>
<path fill-rule="evenodd" clip-rule="evenodd" d="M526.415 416.945C526.415 412.842 548.915 354.226 548.915 354.226L549.886 354.506C549.886 354.506 537.915 416.945 537.915 420.462C534.784 422.52 532.578 426.555 529.415 424.565C526.952 423.015 527.37 420.025 526.415 416.945Z" fill="#5383FF"/>
<path fill-rule="evenodd" clip-rule="evenodd" d="M474.415 379.22C474.415 375.117 496.915 316.502 496.915 316.502L497.886 316.781C497.886 316.781 485.915 379.22 485.915 382.737C482.784 384.795 480.578 388.83 477.415 386.84C474.952 385.29 475.37 382.3 474.415 379.22Z" fill="#5383FF"/>
<path fill-rule="evenodd" clip-rule="evenodd" d="M512.33 353.64C512.33 349.537 534.83 290.922 534.83 290.922L535.801 291.201C535.801 291.201 523.83 353.64 523.83 357.157C520.698 359.215 518.493 363.25 515.33 361.26C512.866 359.71 513.284 356.721 512.33 353.64Z" fill="#5383FF"/>
<path fill-rule="evenodd" clip-rule="evenodd" d="M412.5 505.829C412.5 501.726 435 443.111 435 443.111L435.971 443.39C435.971 443.39 424 505.829 424 509.346C420.869 511.404 418.663 515.439 415.5 513.449C413.037 511.899 413.455 508.91 412.5 505.829Z" fill="#5383FF"/>
<path fill-rule="evenodd" clip-rule="evenodd" d="M450.415 480.249C450.415 476.146 472.915 417.531 472.915 417.531L473.886 417.811C473.886 417.811 461.915 480.249 461.915 483.766C458.784 485.824 456.578 489.86 453.415 487.869C450.952 486.32 451.37 483.33 450.415 480.249Z" fill="#5383FF"/>
<path fill-rule="evenodd" clip-rule="evenodd" d="M398.415 442.525C398.415 438.422 420.915 379.806 420.915 379.806L421.886 380.086C421.886 380.086 409.915 442.525 409.915 446.042C406.784 448.1 404.578 452.135 401.415 450.145C398.952 448.595 399.37 445.605 398.415 442.525Z" fill="#5383FF"/>
<path fill-rule="evenodd" clip-rule="evenodd" d="M436.33 416.945C436.33 412.842 458.83 354.226 458.83 354.226L459.801 354.506C459.801 354.506 447.83 416.945 447.83 420.462C444.698 422.52 442.493 426.555 439.33 424.565C436.866 423.015 437.284 420.025 436.33 416.945Z" fill="#5383FF"/>
<path fill-rule="evenodd" clip-rule="evenodd" d="M347.5 409.7C347.5 405.597 370 346.982 370 346.982L370.971 347.261C370.971 347.261 359 409.7 359 413.217C355.869 415.275 353.663 419.31 350.5 417.32C348.037 415.77 348.455 412.78 347.5 409.7Z" fill="#5383FF"/>
<path fill-rule="evenodd" clip-rule="evenodd" d="M385.415 384.12C385.415 380.017 407.915 321.402 407.915 321.402L408.886 321.681C408.886 321.681 396.915 384.12 396.915 387.637C393.783 389.695 391.578 393.73 388.415 391.74C385.951 390.19 386.37 387.201 385.415 384.12Z" fill="#5383FF"/>
<path fill-rule="evenodd" clip-rule="evenodd" d="M333.415 346.395C333.415 342.292 355.915 283.677 355.915 283.677L356.886 283.957C356.886 283.957 344.915 346.395 344.915 349.912C341.783 351.97 339.578 356.006 336.415 354.015C333.951 352.466 334.37 349.476 333.415 346.395Z" fill="#5383FF"/>
<path fill-rule="evenodd" clip-rule="evenodd" d="M371.33 320.816C371.33 316.713 393.83 258.097 393.83 258.097L394.801 258.377C394.801 258.377 382.829 320.816 382.829 324.333C379.698 326.391 377.493 330.426 374.33 328.436C371.866 326.886 372.284 323.896 371.33 320.816Z" fill="#5383FF"/>
<path fill-rule="evenodd" clip-rule="evenodd" d="M174.415 679.429C174.415 675.326 196.915 616.711 196.915 616.711L197.886 616.99C197.886 616.99 185.915 679.429 185.915 682.946C182.784 685.004 180.578 689.039 177.415 687.049C174.952 685.499 175.37 682.51 174.415 679.429Z" fill="#5383FF"/>
<path fill-rule="evenodd" clip-rule="evenodd" d="M73.4148 642.849C73.4148 638.746 95.9149 580.131 95.9149 580.131L96.886 580.411C96.886 580.411 84.9148 642.849 84.9148 646.366C81.7835 648.424 79.5779 652.46 76.4149 650.469C73.9516 648.919 74.3697 645.93 73.4148 642.849Z" fill="#5383FF"/>
<path fill-rule="evenodd" clip-rule="evenodd" d="M21.4148 605.125C21.4148 601.021 43.9149 542.406 43.9149 542.406L44.886 542.686C44.886 542.686 32.9148 605.125 32.9148 608.641C29.7835 610.7 27.5779 614.735 24.4149 612.745C21.9516 611.195 22.3697 608.205 21.4148 605.125Z" fill="#5383FF"/>
<path fill-rule="evenodd" clip-rule="evenodd" d="M198.244 590.545C198.244 586.442 220.744 527.826 220.744 527.826L221.716 528.106C221.716 528.106 209.744 590.545 209.744 594.062C206.613 596.12 204.408 600.155 201.245 598.165C198.781 596.615 199.199 593.625 198.244 590.545Z" fill="#5383FF"/>
<path fill-rule="evenodd" clip-rule="evenodd" d="M114.5 612.159C114.5 608.055 137 549.44 137 549.44L137.971 549.72C137.971 549.72 126 612.159 126 615.675C122.869 617.733 120.663 621.769 117.5 619.778C115.037 618.229 115.455 615.239 114.5 612.159Z" fill="#5383FF"/>
<path fill-rule="evenodd" clip-rule="evenodd" d="M152.415 586.579C152.415 582.476 174.915 523.86 174.915 523.86L175.886 524.14C175.886 524.14 163.915 586.579 163.915 590.096C160.783 592.154 158.578 596.189 155.415 594.199C152.952 592.649 153.37 589.659 152.415 586.579Z" fill="#5383FF"/>
<path fill-rule="evenodd" clip-rule="evenodd" d="M239.33 559.854C239.33 555.751 261.83 497.135 261.83 497.135L262.801 497.415C262.801 497.415 250.83 559.854 250.83 563.371C247.698 565.429 245.493 569.464 242.33 567.474C239.866 565.924 240.284 562.934 239.33 559.854Z" fill="#5383FF"/>
<path fill-rule="evenodd" clip-rule="evenodd" d="M277.244 534.274C277.244 530.171 299.744 471.556 299.744 471.556L300.716 471.835C300.716 471.835 288.744 534.274 288.744 537.791C285.613 539.849 283.407 543.884 280.244 541.894C277.781 540.344 278.199 537.354 277.244 534.274Z" fill="#5383FF"/>
<path fill-rule="evenodd" clip-rule="evenodd" d="M102.5 757.525C102.5 753.422 125 694.806 125 694.806L125.971 695.086C125.971 695.086 114 757.525 114 761.042C110.869 763.1 108.663 767.135 105.5 765.145C103.037 763.595 103.455 760.605 102.5 757.525Z" fill="#5383FF"/>
<path fill-rule="evenodd" clip-rule="evenodd" d="M140.415 731.945C140.415 727.842 162.915 669.226 162.915 669.226L163.886 669.506C163.886 669.506 151.915 731.945 151.915 735.462C148.783 737.52 146.578 741.555 143.415 739.565C140.952 738.015 141.37 735.025 140.415 731.945Z" fill="#5383FF"/>
<path fill-rule="evenodd" clip-rule="evenodd" d="M227.33 705.22C227.33 701.117 249.83 642.502 249.83 642.502L250.801 642.781C250.801 642.781 238.83 705.22 238.83 708.737C235.698 710.795 233.493 714.83 230.33 712.84C227.866 711.29 228.284 708.3 227.33 705.22Z" fill="#5383FF"/>
<path fill-rule="evenodd" clip-rule="evenodd" d="M126.33 668.64C126.33 664.537 148.83 605.922 148.83 605.922L149.801 606.201C149.801 606.201 137.83 668.64 137.83 672.157C134.698 674.215 132.493 678.25 129.33 676.26C126.866 674.71 127.284 671.721 126.33 668.64Z" fill="#5383FF"/>
<path fill-rule="evenodd" clip-rule="evenodd" d="M26.5 820.829C26.5 816.726 49.0001 758.111 49.0001 758.111L49.9712 758.39C49.9712 758.39 38 820.829 38 824.346C34.8687 826.404 32.6632 830.439 29.5001 828.449C27.0368 826.899 27.4549 823.91 26.5 820.829Z" fill="#5383FF"/>
<path fill-rule="evenodd" clip-rule="evenodd" d="M203.33 806.249C203.33 802.146 225.83 743.531 225.83 743.531L226.801 743.811C226.801 743.811 214.83 806.249 214.83 809.766C211.698 811.824 209.493 815.86 206.33 813.869C203.866 812.319 204.284 809.33 203.33 806.249Z" fill="#5383FF"/>
<path fill-rule="evenodd" clip-rule="evenodd" d="M151.33 768.525C151.33 764.422 173.83 705.806 173.83 705.806L174.801 706.086C174.801 706.086 162.83 768.525 162.83 772.042C159.698 774.1 157.493 778.135 154.33 776.145C151.866 774.595 152.284 771.605 151.33 768.525Z" fill="#5383FF"/>
<path fill-rule="evenodd" clip-rule="evenodd" d="M50.3296 731.945C50.3296 727.842 72.8297 669.226 72.8297 669.226L73.8008 669.506C73.8008 669.506 61.8296 731.945 61.8296 735.462C58.6983 737.52 56.4927 741.555 53.3297 739.565C50.8664 738.015 51.2845 735.025 50.3296 731.945Z" fill="#5383FF"/>
<path fill-rule="evenodd" clip-rule="evenodd" d="M100.415 735.7C100.415 731.597 122.915 672.982 122.915 672.982L123.886 673.261C123.886 673.261 111.915 735.7 111.915 739.217C108.783 741.275 106.578 745.31 103.415 743.32C100.952 741.77 101.37 738.78 100.415 735.7Z" fill="#5383FF"/>
<path fill-rule="evenodd" clip-rule="evenodd" d="M-0.585233 699.12C-0.585233 695.017 21.9148 636.402 21.9148 636.402L22.886 636.681C22.886 636.681 10.9147 699.12 10.9147 702.637C7.78347 704.695 5.57789 708.73 2.41486 706.74C-0.0484941 705.19 0.369602 702.201 -0.585233 699.12Z" fill="#5383FF"/>
<path fill-rule="evenodd" clip-rule="evenodd" d="M124.244 646.816C124.244 642.712 146.744 584.097 146.744 584.097L147.716 584.377C147.716 584.377 135.744 646.816 135.744 650.332C132.613 652.39 130.407 656.426 127.244 654.436C124.781 652.886 125.199 649.896 124.244 646.816Z" fill="#5383FF"/>
<path fill-rule="evenodd" clip-rule="evenodd" d="M858.5 597.429C858.5 593.326 881 534.711 881 534.711L881.971 534.99C881.971 534.99 870 597.429 870 600.946C866.869 603.004 864.663 607.039 861.5 605.049C859.037 603.499 859.455 600.51 858.5 597.429Z" fill="#5383FF"/>
<path fill-rule="evenodd" clip-rule="evenodd" d="M545.415 529.849C545.415 525.746 567.915 467.131 567.915 467.131L568.886 467.411C568.886 467.411 556.915 529.849 556.915 533.366C553.783 535.424 551.578 539.46 548.415 537.469C545.951 535.919 546.37 532.93 545.415 529.849Z" fill="#5383FF"/>
<path fill-rule="evenodd" clip-rule="evenodd" d="M844.415 534.125C844.415 530.022 866.915 471.406 866.915 471.406L867.886 471.686C867.886 471.686 855.915 534.125 855.915 537.642C852.784 539.7 850.578 543.735 847.415 541.745C844.952 540.195 845.37 537.205 844.415 534.125Z" fill="#5383FF"/>
<path fill-rule="evenodd" clip-rule="evenodd" d="M882.33 508.545C882.33 504.442 904.83 445.826 904.83 445.826L905.801 446.106C905.801 446.106 893.83 508.545 893.83 512.062C890.698 514.12 888.493 518.155 885.33 516.165C882.866 514.615 883.284 511.625 882.33 508.545Z" fill="#5383FF"/>
<path fill-rule="evenodd" clip-rule="evenodd" d="M586.5 499.159C586.5 495.055 609 436.44 609 436.44L609.971 436.72C609.971 436.72 598 499.159 598 502.675C594.869 504.733 592.663 508.769 589.5 506.778C587.037 505.229 587.455 502.239 586.5 499.159Z" fill="#5383FF"/>
<path fill-rule="evenodd" clip-rule="evenodd" d="M975.415 515.579C975.415 511.476 997.915 452.86 997.915 452.86L998.886 453.14C998.886 453.14 986.915 515.579 986.915 519.096C983.784 521.154 981.578 525.189 978.415 523.199C975.952 521.649 976.37 518.659 975.415 515.579Z" fill="#5383FF"/>
<path fill-rule="evenodd" clip-rule="evenodd" d="M923.415 477.854C923.415 473.751 945.915 415.136 945.915 415.136L946.886 415.415C946.886 415.415 934.915 477.854 934.915 481.371C931.784 483.429 929.578 487.464 926.415 485.474C923.952 483.924 924.37 480.934 923.415 477.854Z" fill="#5383FF"/>
<path fill-rule="evenodd" clip-rule="evenodd" d="M610.33 410.274C610.33 406.171 632.83 347.556 632.83 347.556L633.801 347.835C633.801 347.835 621.829 410.274 621.829 413.791C618.698 415.849 616.493 419.884 613.33 417.894C610.866 416.344 611.284 413.355 610.33 410.274Z" fill="#5383FF"/>
<path fill-rule="evenodd" clip-rule="evenodd" d="M925.5 686.525C925.5 682.422 948 623.806 948 623.806L948.971 624.086C948.971 624.086 937 686.525 937 690.042C933.869 692.1 931.663 696.135 928.5 694.145C926.037 692.595 926.455 689.605 925.5 686.525Z" fill="#5383FF"/>
<path fill-rule="evenodd" clip-rule="evenodd" d="M963.415 660.945C963.415 656.842 985.915 598.226 985.915 598.226L986.886 598.506C986.886 598.506 974.915 660.945 974.915 664.462C971.784 666.52 969.578 670.555 966.415 668.565C963.952 667.015 964.37 664.025 963.415 660.945Z" fill="#5383FF"/>
<path fill-rule="evenodd" clip-rule="evenodd" d="M560.415 581.22C560.415 577.117 582.915 518.502 582.915 518.502L583.886 518.781C583.886 518.781 571.915 581.22 571.915 584.737C568.783 586.795 566.578 590.83 563.415 588.84C560.951 587.29 561.37 584.301 560.415 581.22Z" fill="#5383FF"/>
<path fill-rule="evenodd" clip-rule="evenodd" d="M949.33 597.64C949.33 593.537 971.83 534.922 971.83 534.922L972.801 535.201C972.801 535.201 960.83 597.64 960.83 601.157C957.698 603.215 955.493 607.25 952.33 605.26C949.866 603.71 950.284 600.721 949.33 597.64Z" fill="#5383FF"/>
<path fill-rule="evenodd" clip-rule="evenodd" d="M849.5 749.829C849.5 745.726 872 687.111 872 687.111L872.971 687.39C872.971 687.39 861 749.829 861 753.346C857.869 755.404 855.663 759.439 852.5 757.449C850.037 755.899 850.455 752.91 849.5 749.829Z" fill="#5383FF"/>
<path fill-rule="evenodd" clip-rule="evenodd" d="M536.415 682.25C536.415 678.146 558.915 619.531 558.915 619.531L559.886 619.811C559.886 619.811 547.915 682.25 547.915 685.766C544.783 687.824 542.578 691.86 539.415 689.869C536.951 688.32 537.37 685.33 536.415 682.25Z" fill="#5383FF"/>
<path fill-rule="evenodd" clip-rule="evenodd" d="M835.415 686.525C835.415 682.422 857.915 623.806 857.915 623.806L858.886 624.086C858.886 624.086 846.915 686.525 846.915 690.042C843.784 692.1 841.578 696.135 838.415 694.145C835.952 692.595 836.37 689.605 835.415 686.525Z" fill="#5383FF"/>
<path fill-rule="evenodd" clip-rule="evenodd" d="M522.33 618.945C522.33 614.842 544.83 556.226 544.83 556.226L545.801 556.506C545.801 556.506 533.829 618.945 533.829 622.462C530.698 624.52 528.493 628.555 525.33 626.565C522.866 625.015 523.284 622.025 522.33 618.945Z" fill="#5383FF"/>
<path fill-rule="evenodd" clip-rule="evenodd" d="M784.5 653.7C784.5 649.597 807 590.982 807 590.982L807.971 591.261C807.971 591.261 796 653.7 796 657.217C792.869 659.275 790.663 663.31 787.5 661.32C785.037 659.77 785.455 656.78 784.5 653.7Z" fill="#5383FF"/>
<path fill-rule="evenodd" clip-rule="evenodd" d="M822.415 628.12C822.415 624.017 844.915 565.402 844.915 565.402L845.886 565.681C845.886 565.681 833.915 628.12 833.915 631.637C830.783 633.695 828.578 637.73 825.415 635.74C822.951 634.19 823.37 631.201 822.415 628.12Z" fill="#5383FF"/>
<path fill-rule="evenodd" clip-rule="evenodd" d="M419.415 548.395C419.415 544.292 441.915 485.677 441.915 485.677L442.886 485.957C442.886 485.957 430.915 548.395 430.915 551.912C427.783 553.97 425.578 558.006 422.415 556.015C419.951 554.465 420.369 551.476 419.415 548.395Z" fill="#5383FF"/>
<path fill-rule="evenodd" clip-rule="evenodd" d="M457.329 522.816C457.329 518.713 479.829 460.097 479.829 460.097L480.801 460.377C480.801 460.377 468.829 522.816 468.829 526.333C465.698 528.391 463.492 532.426 460.329 530.436C457.866 528.886 458.284 525.896 457.329 522.816Z" fill="#5383FF"/>
<path fill-rule="evenodd" clip-rule="evenodd" d="M506.5 826.208C506.5 822.105 529 763.489 529 763.489L529.971 763.769C529.971 763.769 518 826.208 518 829.725C514.869 831.783 512.663 835.818 509.5 833.828C507.037 832.278 507.455 829.288 506.5 826.208Z" fill="#5383FF"/>
<path fill-rule="evenodd" clip-rule="evenodd" d="M544.415 800.628C544.415 796.525 566.915 737.91 566.915 737.91L567.886 738.189C567.886 738.189 555.915 800.628 555.915 804.145C552.784 806.203 550.578 810.238 547.415 808.248C544.952 806.698 545.37 803.708 544.415 800.628Z" fill="#5383FF"/>
<path fill-rule="evenodd" clip-rule="evenodd" d="M492.415 762.903C492.415 758.8 514.915 700.185 514.915 700.185L515.886 700.464C515.886 700.464 503.915 762.903 503.915 766.42C500.784 768.478 498.578 772.513 495.415 770.523C492.952 768.973 493.37 765.984 492.415 762.903Z" fill="#5383FF"/>
<path fill-rule="evenodd" clip-rule="evenodd" d="M530.33 737.323C530.33 733.22 552.83 674.605 552.83 674.605L553.801 674.885C553.801 674.885 541.83 737.323 541.83 740.84C538.698 742.898 536.493 746.933 533.33 744.943C530.866 743.393 531.284 740.404 530.33 737.323Z" fill="#5383FF"/>
<path fill-rule="evenodd" clip-rule="evenodd" d="M585.5 769.937C585.5 765.834 608 707.219 608 707.219L608.971 707.498C608.971 707.498 597 769.937 597 773.454C593.869 775.512 591.663 779.547 588.5 777.557C586.037 776.007 586.455 773.017 585.5 769.937Z" fill="#5383FF"/>
<path fill-rule="evenodd" clip-rule="evenodd" d="M623.415 744.357C623.415 740.254 645.915 681.639 645.915 681.639L646.886 681.918C646.886 681.918 634.915 744.357 634.915 747.874C631.784 749.932 629.578 753.967 626.415 751.977C623.952 750.427 624.37 747.438 623.415 744.357Z" fill="#5383FF"/>
<path fill-rule="evenodd" clip-rule="evenodd" d="M571.415 706.632C571.415 702.529 593.915 643.914 593.915 643.914L594.886 644.194C594.886 644.194 582.915 706.632 582.915 710.149C579.784 712.207 577.578 716.243 574.415 714.252C571.952 712.702 572.37 709.713 571.415 706.632Z" fill="#5383FF"/>
<path fill-rule="evenodd" clip-rule="evenodd" d="M609.33 681.053C609.33 676.949 631.83 618.334 631.83 618.334L632.801 618.614C632.801 618.614 620.83 681.053 620.83 684.569C617.698 686.627 615.493 690.663 612.33 688.673C609.866 687.123 610.284 684.133 609.33 681.053Z" fill="#5383FF"/>
<path fill-rule="evenodd" clip-rule="evenodd" d="M611.415 889.723C611.415 885.62 633.915 827.005 633.915 827.005L634.886 827.285C634.886 827.285 622.915 889.723 622.915 893.24C619.784 895.298 617.578 899.334 614.415 897.343C611.952 895.793 612.37 892.804 611.415 889.723Z" fill="#5383FF"/>
<path fill-rule="evenodd" clip-rule="evenodd" d="M559.415 851.999C559.415 847.895 581.915 789.28 581.915 789.28L582.886 789.56C582.886 789.56 570.915 851.999 570.915 855.515C567.784 857.573 565.578 861.609 562.415 859.619C559.952 858.069 560.37 855.079 559.415 851.999Z" fill="#5383FF"/>
<path fill-rule="evenodd" clip-rule="evenodd" d="M597.33 826.419C597.33 822.316 619.83 763.7 619.83 763.7L620.801 763.98C620.801 763.98 608.83 826.419 608.83 829.936C605.698 831.994 603.493 836.029 600.33 834.039C597.866 832.489 598.284 829.499 597.33 826.419Z" fill="#5383FF"/>
<path fill-rule="evenodd" clip-rule="evenodd" d="M521.33 889.723C521.33 885.62 543.83 827.005 543.83 827.005L544.801 827.285C544.801 827.285 532.83 889.723 532.83 893.24C529.698 895.298 527.493 899.334 524.33 897.343C521.866 895.793 522.284 892.804 521.33 889.723Z" fill="#5383FF"/>
<path fill-rule="evenodd" clip-rule="evenodd" d="M432.5 882.479C432.5 878.376 455 819.76 455 819.76L455.971 820.04C455.971 820.04 444 882.479 444 885.996C440.869 888.054 438.663 892.089 435.5 890.099C433.037 888.549 433.455 885.559 432.5 882.479Z" fill="#5383FF"/>
<path fill-rule="evenodd" clip-rule="evenodd" d="M470.415 856.899C470.415 852.796 492.915 794.18 492.915 794.18L493.886 794.46C493.886 794.46 481.915 856.899 481.915 860.416C478.783 862.474 476.578 866.509 473.415 864.519C470.951 862.969 471.37 859.979 470.415 856.899Z" fill="#5383FF"/>
<path fill-rule="evenodd" clip-rule="evenodd" d="M418.415 819.174C418.415 815.071 440.915 756.456 440.915 756.456L441.886 756.735C441.886 756.735 429.915 819.174 429.915 822.691C426.783 824.749 424.578 828.784 421.415 826.794C418.951 825.244 419.37 822.254 418.415 819.174Z" fill="#5383FF"/>
<path fill-rule="evenodd" clip-rule="evenodd" d="M456.33 793.594C456.33 789.491 478.83 730.876 478.83 730.876L479.801 731.155C479.801 731.155 467.829 793.594 467.829 797.111C464.698 799.169 462.493 803.204 459.33 801.214C456.866 799.664 457.284 796.675 456.33 793.594Z" fill="#5383FF"/>
<path fill-rule="evenodd" clip-rule="evenodd" d="M327.5 685.429C327.5 681.326 350 622.711 350 622.711L350.971 622.99C350.971 622.99 339 685.429 339 688.946C335.869 691.004 333.663 695.039 330.5 693.049C328.037 691.499 328.455 688.51 327.5 685.429Z" fill="#5383FF"/>
<path fill-rule="evenodd" clip-rule="evenodd" d="M365.415 659.849C365.415 655.746 387.915 597.131 387.915 597.131L388.886 597.411C388.886 597.411 376.915 659.849 376.915 663.366C373.784 665.424 371.578 669.46 368.415 667.469C365.952 665.919 366.37 662.93 365.415 659.849Z" fill="#5383FF"/>
<path fill-rule="evenodd" clip-rule="evenodd" d="M313.415 622.125C313.415 618.022 335.915 559.406 335.915 559.406L336.886 559.686C336.886 559.686 324.915 622.125 324.915 625.642C321.784 627.7 319.578 631.735 316.415 629.745C313.952 628.195 314.37 625.205 313.415 622.125Z" fill="#5383FF"/>
<path fill-rule="evenodd" clip-rule="evenodd" d="M351.33 596.545C351.33 592.442 373.83 533.826 373.83 533.826L374.801 534.106C374.801 534.106 362.83 596.545 362.83 600.062C359.698 602.12 357.493 606.155 354.33 604.165C351.866 602.615 352.284 599.625 351.33 596.545Z" fill="#5383FF"/>
<path fill-rule="evenodd" clip-rule="evenodd" d="M406.5 629.159C406.5 625.055 429 566.44 429 566.44L429.971 566.72C429.971 566.72 418 629.159 418 632.675C414.869 634.733 412.663 638.769 409.5 636.778C407.037 635.229 407.455 632.239 406.5 629.159Z" fill="#5383FF"/>
<path fill-rule="evenodd" clip-rule="evenodd" d="M444.415 603.579C444.415 599.476 466.915 540.86 466.915 540.86L467.886 541.14C467.886 541.14 455.915 603.579 455.915 607.096C452.783 609.154 450.578 613.189 447.415 611.199C444.951 609.649 445.37 606.659 444.415 603.579Z" fill="#5383FF"/>
<path fill-rule="evenodd" clip-rule="evenodd" d="M392.415 565.854C392.415 561.751 414.915 503.135 414.915 503.135L415.886 503.415C415.886 503.415 403.915 565.854 403.915 569.371C400.783 571.429 398.578 575.464 395.415 573.474C392.951 571.924 393.37 568.934 392.415 565.854Z" fill="#5383FF"/>
<path fill-rule="evenodd" clip-rule="evenodd" d="M430.33 540.274C430.33 536.171 452.83 477.556 452.83 477.556L453.801 477.835C453.801 477.835 441.829 540.274 441.829 543.791C438.698 545.849 436.493 549.884 433.33 547.894C430.866 546.344 431.284 543.354 430.33 540.274Z" fill="#5383FF"/>
<path fill-rule="evenodd" clip-rule="evenodd" d="M394.5 774.525C394.5 770.422 417 711.806 417 711.806L417.971 712.086C417.971 712.086 406 774.525 406 778.042C402.869 780.1 400.663 784.135 397.5 782.145C395.037 780.595 395.455 777.605 394.5 774.525Z" fill="#5383FF"/>
<path fill-rule="evenodd" clip-rule="evenodd" d="M432.415 748.945C432.415 744.842 454.915 686.226 454.915 686.226L455.886 686.506C455.886 686.506 443.915 748.945 443.915 752.462C440.783 754.52 438.578 758.555 435.415 756.565C432.951 755.015 433.37 752.025 432.415 748.945Z" fill="#5383FF"/>
<path fill-rule="evenodd" clip-rule="evenodd" d="M380.415 711.22C380.415 707.117 402.915 648.502 402.915 648.502L403.886 648.781C403.886 648.781 391.915 711.22 391.915 714.737C388.783 716.795 386.578 720.83 383.415 718.84C380.951 717.29 381.37 714.301 380.415 711.22Z" fill="#5383FF"/>
<path fill-rule="evenodd" clip-rule="evenodd" d="M418.33 685.64C418.33 681.537 440.83 622.922 440.83 622.922L441.801 623.201C441.801 623.201 429.829 685.64 429.829 689.157C426.698 691.215 424.493 695.25 421.33 693.26C418.866 691.71 419.284 688.721 418.33 685.64Z" fill="#5383FF"/>
<path fill-rule="evenodd" clip-rule="evenodd" d="M318.5 837.829C318.5 833.726 341 775.111 341 775.111L341.971 775.391C341.971 775.391 330 837.829 330 841.346C326.869 843.404 324.663 847.439 321.5 845.449C319.037 843.899 319.455 840.91 318.5 837.829Z" fill="#5383FF"/>
<path fill-rule="evenodd" clip-rule="evenodd" d="M356.415 812.25C356.415 808.146 378.915 749.531 378.915 749.531L379.886 749.811C379.886 749.811 367.915 812.25 367.915 815.766C364.784 817.824 362.578 821.86 359.415 819.869C356.952 818.32 357.37 815.33 356.415 812.25Z" fill="#5383FF"/>
<path fill-rule="evenodd" clip-rule="evenodd" d="M304.415 774.525C304.415 770.422 326.915 711.806 326.915 711.806L327.886 712.086C327.886 712.086 315.915 774.525 315.915 778.042C312.784 780.1 310.578 784.135 307.415 782.145C304.952 780.595 305.37 777.605 304.415 774.525Z" fill="#5383FF"/>
<path fill-rule="evenodd" clip-rule="evenodd" d="M342.33 748.945C342.33 744.842 364.83 686.226 364.83 686.226L365.801 686.506C365.801 686.506 353.83 748.945 353.83 752.462C350.698 754.52 348.493 758.555 345.33 756.565C342.866 755.015 343.284 752.025 342.33 748.945Z" fill="#5383FF"/>
<path fill-rule="evenodd" clip-rule="evenodd" d="M253.5 741.7C253.5 737.597 276 678.982 276 678.982L276.971 679.261C276.971 679.261 265 741.7 265 745.217C261.869 747.275 259.663 751.31 256.5 749.32C254.037 747.77 254.455 744.78 253.5 741.7Z" fill="#5383FF"/>
<path fill-rule="evenodd" clip-rule="evenodd" d="M291.415 716.12C291.415 712.017 313.915 653.402 313.915 653.402L314.886 653.681C314.886 653.681 302.915 716.12 302.915 719.637C299.783 721.695 297.578 725.73 294.415 723.74C291.952 722.19 292.37 719.201 291.415 716.12Z" fill="#5383FF"/>
<path fill-rule="evenodd" clip-rule="evenodd" d="M239.415 678.395C239.415 674.292 261.915 615.677 261.915 615.677L262.886 615.957C262.886 615.957 250.915 678.395 250.915 681.912C247.783 683.97 245.578 688.006 242.415 686.015C239.952 684.466 240.37 681.476 239.415 678.395Z" fill="#5383FF"/>
<path fill-rule="evenodd" clip-rule="evenodd" d="M277.33 652.816C277.33 648.713 299.83 590.097 299.83 590.097L300.801 590.377C300.801 590.377 288.83 652.816 288.83 656.333C285.698 658.391 283.493 662.426 280.33 660.436C277.866 658.886 278.284 655.896 277.33 652.816Z" fill="#5383FF"/>
<path fill-rule="evenodd" clip-rule="evenodd" d="M1202.5 555.429C1202.5 551.326 1225 492.711 1225 492.711L1225.97 492.99C1225.97 492.99 1214 555.429 1214 558.946C1210.87 561.004 1208.66 565.039 1205.5 563.049C1203.04 561.499 1203.45 558.51 1202.5 555.429Z" fill="#5383FF"/>
<path fill-rule="evenodd" clip-rule="evenodd" d="M1240.41 529.849C1240.41 525.746 1262.91 467.131 1262.91 467.131L1263.89 467.411C1263.89 467.411 1251.91 529.849 1251.91 533.366C1248.78 535.424 1246.58 539.46 1243.41 537.469C1240.95 535.919 1241.37 532.93 1240.41 529.849Z" fill="#5383FF"/>
<path fill-rule="evenodd" clip-rule="evenodd" d="M1188.41 492.125C1188.41 488.021 1210.91 429.406 1210.91 429.406L1211.89 429.686C1211.89 429.686 1199.91 492.125 1199.91 495.641C1196.78 497.7 1194.58 501.735 1191.41 499.745C1188.95 498.195 1189.37 495.205 1188.41 492.125Z" fill="#5383FF"/>
<path fill-rule="evenodd" clip-rule="evenodd" d="M1226.33 466.545C1226.33 462.442 1248.83 403.826 1248.83 403.826L1249.8 404.106C1249.8 404.106 1237.83 466.545 1237.83 470.062C1234.7 472.12 1232.49 476.155 1229.33 474.165C1226.87 472.615 1227.28 469.625 1226.33 466.545Z" fill="#5383FF"/>
<path fill-rule="evenodd" clip-rule="evenodd" d="M1281.5 499.159C1281.5 495.055 1304 436.44 1304 436.44L1304.97 436.72C1304.97 436.72 1293 499.159 1293 502.675C1289.87 504.733 1287.66 508.769 1284.5 506.778C1282.04 505.229 1282.45 502.239 1281.5 499.159Z" fill="#5383FF"/>
<path fill-rule="evenodd" clip-rule="evenodd" d="M1267.41 435.854C1267.41 431.751 1289.91 373.135 1289.91 373.135L1290.89 373.415C1290.89 373.415 1278.91 435.854 1278.91 439.371C1275.78 441.429 1273.58 445.464 1270.41 443.474C1267.95 441.924 1268.37 438.934 1267.41 435.854Z" fill="#5383FF"/>
<path fill-rule="evenodd" clip-rule="evenodd" d="M1269.5 644.525C1269.5 640.422 1292 581.806 1292 581.806L1292.97 582.086C1292.97 582.086 1281 644.525 1281 648.042C1277.87 650.1 1275.66 654.135 1272.5 652.145C1270.04 650.595 1270.45 647.605 1269.5 644.525Z" fill="#5383FF"/>
<path fill-rule="evenodd" clip-rule="evenodd" d="M1255.41 581.22C1255.41 577.117 1277.91 518.502 1277.91 518.502L1278.89 518.781C1278.89 518.781 1266.91 581.22 1266.91 584.737C1263.78 586.795 1261.58 590.83 1258.41 588.84C1255.95 587.29 1256.37 584.301 1255.41 581.22Z" fill="#5383FF"/>
<path fill-rule="evenodd" clip-rule="evenodd" d="M1193.5 707.829C1193.5 703.726 1216 645.111 1216 645.111L1216.97 645.391C1216.97 645.391 1205 707.829 1205 711.346C1201.87 713.404 1199.66 717.439 1196.5 715.449C1194.04 713.899 1194.45 710.91 1193.5 707.829Z" fill="#5383FF"/>
<path fill-rule="evenodd" clip-rule="evenodd" d="M1231.41 682.25C1231.41 678.146 1253.91 619.531 1253.91 619.531L1254.89 619.811C1254.89 619.811 1242.91 682.25 1242.91 685.766C1239.78 687.824 1237.58 691.86 1234.41 689.869C1231.95 688.32 1232.37 685.33 1231.41 682.25Z" fill="#5383FF"/>
<path fill-rule="evenodd" clip-rule="evenodd" d="M1179.41 644.525C1179.41 640.422 1201.91 581.806 1201.91 581.806L1202.89 582.086C1202.89 582.086 1190.91 644.525 1190.91 648.042C1187.78 650.1 1185.58 654.135 1182.41 652.145C1179.95 650.595 1180.37 647.605 1179.41 644.525Z" fill="#5383FF"/>
<path fill-rule="evenodd" clip-rule="evenodd" d="M1217.33 618.945C1217.33 614.842 1239.83 556.226 1239.83 556.226L1240.8 556.506C1240.8 556.506 1228.83 618.945 1228.83 622.462C1225.7 624.52 1223.49 628.555 1220.33 626.565C1217.87 625.015 1218.28 622.025 1217.33 618.945Z" fill="#5383FF"/>
<path fill-rule="evenodd" clip-rule="evenodd" d="M1128.5 611.7C1128.5 607.597 1151 548.982 1151 548.982L1151.97 549.261C1151.97 549.261 1140 611.7 1140 615.217C1136.87 617.275 1134.66 621.31 1131.5 619.32C1129.04 617.77 1129.45 614.78 1128.5 611.7Z" fill="#5383FF"/>
<path fill-rule="evenodd" clip-rule="evenodd" d="M1166.41 586.12C1166.41 582.017 1188.91 523.402 1188.91 523.402L1189.89 523.681C1189.89 523.681 1177.91 586.12 1177.91 589.637C1174.78 591.695 1172.58 595.73 1169.41 593.74C1166.95 592.19 1167.37 589.201 1166.41 586.12Z" fill="#5383FF"/>
<path fill-rule="evenodd" clip-rule="evenodd" d="M1114.41 548.395C1114.41 544.292 1136.91 485.677 1136.91 485.677L1137.89 485.957C1137.89 485.957 1125.91 548.395 1125.91 551.912C1122.78 553.97 1120.58 558.006 1117.41 556.015C1114.95 554.466 1115.37 551.476 1114.41 548.395Z" fill="#5383FF"/>
<path fill-rule="evenodd" clip-rule="evenodd" d="M1152.33 522.816C1152.33 518.713 1174.83 460.097 1174.83 460.097L1175.8 460.377C1175.8 460.377 1163.83 522.816 1163.83 526.333C1160.7 528.391 1158.49 532.426 1155.33 530.436C1152.87 528.886 1153.28 525.896 1152.33 522.816Z" fill="#5383FF"/>
<path fill-rule="evenodd" clip-rule="evenodd" d="M1033.5 806.429C1033.5 802.326 1056 743.711 1056 743.711L1056.97 743.99C1056.97 743.99 1045 806.429 1045 809.946C1041.87 812.004 1039.66 816.039 1036.5 814.049C1034.04 812.499 1034.45 809.51 1033.5 806.429Z" fill="#5383FF"/>
<path fill-rule="evenodd" clip-rule="evenodd" d="M1071.41 780.849C1071.41 776.746 1093.92 718.131 1093.92 718.131L1094.89 718.411C1094.89 718.411 1082.91 780.849 1082.91 784.366C1079.78 786.424 1077.58 790.46 1074.42 788.469C1071.95 786.919 1072.37 783.93 1071.41 780.849Z" fill="#5383FF"/>
<path fill-rule="evenodd" clip-rule="evenodd" d="M1019.41 743.125C1019.41 739.021 1041.91 680.406 1041.91 680.406L1042.89 680.686C1042.89 680.686 1030.91 743.125 1030.91 746.641C1027.78 748.699 1025.58 752.735 1022.41 750.744C1019.95 749.195 1020.37 746.205 1019.41 743.125Z" fill="#5383FF"/>
<path fill-rule="evenodd" clip-rule="evenodd" d="M1057.33 717.545C1057.33 713.442 1079.83 654.826 1079.83 654.826L1080.8 655.106C1080.8 655.106 1068.83 717.545 1068.83 721.062C1065.7 723.12 1063.49 727.155 1060.33 725.165C1057.87 723.615 1058.28 720.625 1057.33 717.545Z" fill="#5383FF"/>
<path fill-rule="evenodd" clip-rule="evenodd" d="M1112.5 750.158C1112.5 746.055 1135 687.44 1135 687.44L1135.97 687.72C1135.97 687.72 1124 750.158 1124 753.675C1120.87 755.733 1118.66 759.769 1115.5 757.778C1113.04 756.229 1113.45 753.239 1112.5 750.158Z" fill="#5383FF"/>
<path fill-rule="evenodd" clip-rule="evenodd" d="M1150.41 724.579C1150.41 720.476 1172.92 661.86 1172.92 661.86L1173.89 662.14C1173.89 662.14 1161.91 724.579 1161.91 728.096C1158.78 730.154 1156.58 734.189 1153.42 732.199C1150.95 730.649 1151.37 727.659 1150.41 724.579Z" fill="#5383FF"/>
<path fill-rule="evenodd" clip-rule="evenodd" d="M1134.5 420.274C1134.5 416.171 1157 357.556 1157 357.556L1157.97 357.835C1157.97 357.835 1146 420.274 1146 423.791C1142.87 425.849 1140.66 429.884 1137.5 427.894C1135.04 426.344 1135.45 423.355 1134.5 420.274Z" fill="#5383FF"/>
<path fill-rule="evenodd" clip-rule="evenodd" d="M1136.33 661.274C1136.33 657.171 1158.83 598.556 1158.83 598.556L1159.8 598.835C1159.8 598.835 1147.83 661.274 1147.83 664.791C1144.7 666.849 1142.49 670.884 1139.33 668.894C1136.87 667.344 1137.28 664.354 1136.33 661.274Z" fill="#5383FF"/>
<path fill-rule="evenodd" clip-rule="evenodd" d="M1136.59 628.945C1136.59 624.842 1159.09 566.226 1159.09 566.226L1160.06 566.506C1160.06 566.506 1148.09 628.945 1148.09 632.462C1144.95 634.52 1142.75 638.555 1139.59 636.565C1137.12 635.015 1137.54 632.025 1136.59 628.945Z" fill="#5383FF"/>
<path fill-rule="evenodd" clip-rule="evenodd" d="M1138.41 869.945C1138.41 865.842 1160.92 807.226 1160.92 807.226L1161.89 807.506C1161.89 807.506 1149.91 869.945 1149.91 873.462C1146.78 875.52 1144.58 879.555 1141.42 877.565C1138.95 876.015 1139.37 873.025 1138.41 869.945Z" fill="#5383FF"/>
<path fill-rule="evenodd" clip-rule="evenodd" d="M1122.5 565.64C1122.5 561.537 1145 502.922 1145 502.922L1145.97 503.201C1145.97 503.201 1134 565.64 1134 569.157C1130.87 571.215 1128.66 575.25 1125.5 573.26C1123.04 571.71 1123.45 568.721 1122.5 565.64Z" fill="#5383FF"/>
<path fill-rule="evenodd" clip-rule="evenodd" d="M1124.33 806.64C1124.33 802.537 1146.83 743.922 1146.83 743.922L1147.8 744.201C1147.8 744.201 1135.83 806.64 1135.83 810.157C1132.7 812.215 1130.49 816.25 1127.33 814.26C1124.87 812.71 1125.28 809.721 1124.33 806.64Z" fill="#5383FF"/>
<path fill-rule="evenodd" clip-rule="evenodd" d="M1060.59 692.25C1060.59 688.146 1083.09 629.531 1083.09 629.531L1084.06 629.811C1084.06 629.811 1072.09 692.25 1072.09 695.766C1068.95 697.824 1066.75 701.86 1063.59 699.869C1061.12 698.32 1061.54 695.33 1060.59 692.25Z" fill="#5383FF"/>
<path fill-rule="evenodd" clip-rule="evenodd" d="M1010.41 895.525C1010.41 891.422 1032.91 832.806 1032.91 832.806L1033.89 833.086C1033.89 833.086 1021.91 895.525 1021.91 899.042C1018.78 901.1 1016.58 905.135 1013.41 903.145C1010.95 901.595 1011.37 898.605 1010.41 895.525Z" fill="#5383FF"/>
<path fill-rule="evenodd" clip-rule="evenodd" d="M1084.41 603.365C1084.41 599.262 1106.91 540.647 1106.91 540.647L1107.89 540.926C1107.89 540.926 1095.91 603.365 1095.91 606.882C1092.78 608.94 1090.58 612.975 1087.41 610.985C1084.95 609.435 1085.37 606.445 1084.41 603.365Z" fill="#5383FF"/>
<path fill-rule="evenodd" clip-rule="evenodd" d="M959.5 862.7C959.5 858.597 982 799.982 982 799.982L982.971 800.261C982.971 800.261 971 862.7 971 866.217C967.869 868.275 965.663 872.31 962.5 870.32C960.037 868.77 960.455 865.78 959.5 862.7Z" fill="#5383FF"/>
<path fill-rule="evenodd" clip-rule="evenodd" d="M1033.5 570.54C1033.5 566.437 1056 507.822 1056 507.822L1056.97 508.102C1056.97 508.102 1045 570.54 1045 574.057C1041.87 576.115 1039.66 580.151 1036.5 578.16C1034.04 576.61 1034.45 573.621 1033.5 570.54Z" fill="#5383FF"/>
<path fill-rule="evenodd" clip-rule="evenodd" d="M945.415 799.395C945.415 795.292 967.915 736.677 967.915 736.677L968.886 736.957C968.886 736.957 956.915 799.395 956.915 802.912C953.783 804.97 951.578 809.006 948.415 807.015C945.951 805.465 946.37 802.476 945.415 799.395Z" fill="#5383FF"/>
<path fill-rule="evenodd" clip-rule="evenodd" d="M1019.41 507.236C1019.41 503.133 1041.91 444.517 1041.91 444.517L1042.89 444.797C1042.89 444.797 1030.91 507.236 1030.91 510.753C1027.78 512.811 1025.58 516.846 1022.41 514.856C1019.95 513.306 1020.37 510.316 1019.41 507.236Z" fill="#5383FF"/>
<path fill-rule="evenodd" clip-rule="evenodd" d="M68.4148 888.849C68.4148 884.746 90.9149 826.131 90.9149 826.131L91.886 826.411C91.886 826.411 79.9148 888.849 79.9148 892.366C76.7835 894.424 74.5779 898.46 71.4149 896.469C68.9516 894.919 69.3697 891.93 68.4148 888.849Z" fill="#5383FF"/>
<path fill-rule="evenodd" clip-rule="evenodd" d="M16.4148 851.125C16.4148 847.021 38.9149 788.406 38.9149 788.406L39.886 788.686C39.886 788.686 27.9148 851.125 27.9148 854.641C24.7835 856.699 22.5779 860.735 19.4149 858.744C16.9516 857.195 17.3697 854.205 16.4148 851.125Z" fill="#5383FF"/>
<path fill-rule="evenodd" clip-rule="evenodd" d="M193.244 836.545C193.244 832.442 215.744 773.826 215.744 773.826L216.716 774.106C216.716 774.106 204.744 836.545 204.744 840.062C201.613 842.12 199.408 846.155 196.245 844.165C193.781 842.615 194.199 839.625 193.244 836.545Z" fill="#5383FF"/>
<path fill-rule="evenodd" clip-rule="evenodd" d="M109.5 858.158C109.5 854.055 132 795.44 132 795.44L132.971 795.72C132.971 795.72 121 858.158 121 861.675C117.869 863.733 115.663 867.769 112.5 865.778C110.037 864.229 110.455 861.239 109.5 858.158Z" fill="#5383FF"/>
<path fill-rule="evenodd" clip-rule="evenodd" d="M147.415 832.579C147.415 828.476 169.915 769.86 169.915 769.86L170.886 770.14C170.886 770.14 158.915 832.579 158.915 836.096C155.783 838.154 153.578 842.189 150.415 840.199C147.952 838.649 148.37 835.659 147.415 832.579Z" fill="#5383FF"/>
<path fill-rule="evenodd" clip-rule="evenodd" d="M234.33 805.854C234.33 801.751 256.83 743.135 256.83 743.135L257.801 743.415C257.801 743.415 245.83 805.854 245.83 809.371C242.698 811.429 240.493 815.464 237.33 813.474C234.866 811.924 235.284 808.934 234.33 805.854Z" fill="#5383FF"/>
<path fill-rule="evenodd" clip-rule="evenodd" d="M272.244 780.274C272.244 776.171 294.744 717.556 294.744 717.556L295.716 717.835C295.716 717.835 283.744 780.274 283.744 783.791C280.613 785.849 278.407 789.884 275.244 787.894C272.781 786.344 273.199 783.354 272.244 780.274Z" fill="#5383FF"/>
<path fill-rule="evenodd" clip-rule="evenodd" d="M119.244 892.816C119.244 888.712 141.744 830.097 141.744 830.097L142.716 830.377C142.716 830.377 130.744 892.816 130.744 896.332C127.613 898.39 125.407 902.426 122.244 900.436C119.781 898.886 120.199 895.896 119.244 892.816Z" fill="#5383FF"/>
<path fill-rule="evenodd" clip-rule="evenodd" d="M853.5 843.429C853.5 839.326 876 780.711 876 780.711L876.971 780.99C876.971 780.99 865 843.429 865 846.946C861.869 849.004 859.663 853.039 856.5 851.049C854.037 849.499 854.455 846.51 853.5 843.429Z" fill="#5383FF"/>
<path fill-rule="evenodd" clip-rule="evenodd" d="M540.415 775.849C540.415 771.746 562.915 713.131 562.915 713.131L563.886 713.411C563.886 713.411 551.915 775.849 551.915 779.366C548.783 781.424 546.578 785.46 543.415 783.469C540.951 781.919 541.37 778.93 540.415 775.849Z" fill="#5383FF"/>
<path fill-rule="evenodd" clip-rule="evenodd" d="M839.415 780.125C839.415 776.022 861.915 717.406 861.915 717.406L862.886 717.686C862.886 717.686 850.915 780.125 850.915 783.642C847.784 785.7 845.578 789.735 842.415 787.745C839.952 786.195 840.37 783.205 839.415 780.125Z" fill="#5383FF"/>
<path fill-rule="evenodd" clip-rule="evenodd" d="M877.33 754.545C877.33 750.442 899.83 691.826 899.83 691.826L900.801 692.106C900.801 692.106 888.83 754.545 888.83 758.062C885.698 760.12 883.493 764.155 880.33 762.165C877.866 760.615 878.284 757.625 877.33 754.545Z" fill="#5383FF"/>
<path fill-rule="evenodd" clip-rule="evenodd" d="M581.5 745.159C581.5 741.055 604 682.44 604 682.44L604.971 682.72C604.971 682.72 593 745.159 593 748.675C589.869 750.733 587.663 754.769 584.5 752.778C582.037 751.229 582.455 748.239 581.5 745.159Z" fill="#5383FF"/>
<path fill-rule="evenodd" clip-rule="evenodd" d="M970.415 761.579C970.415 757.476 992.915 698.86 992.915 698.86L993.886 699.14C993.886 699.14 981.915 761.579 981.915 765.096C978.784 767.154 976.578 771.189 973.415 769.199C970.952 767.649 971.37 764.659 970.415 761.579Z" fill="#5383FF"/>
<path fill-rule="evenodd" clip-rule="evenodd" d="M918.415 723.854C918.415 719.751 940.915 661.136 940.915 661.136L941.886 661.415C941.886 661.415 929.915 723.854 929.915 727.371C926.784 729.429 924.578 733.464 921.415 731.474C918.952 729.924 919.37 726.934 918.415 723.854Z" fill="#5383FF"/>
<path fill-rule="evenodd" clip-rule="evenodd" d="M605.33 656.274C605.33 652.171 627.83 593.556 627.83 593.556L628.801 593.835C628.801 593.835 616.829 656.274 616.829 659.791C613.698 661.849 611.493 665.884 608.33 663.894C605.866 662.344 606.284 659.355 605.33 656.274Z" fill="#5383FF"/>
<path fill-rule="evenodd" clip-rule="evenodd" d="M555.415 827.22C555.415 823.117 577.915 764.502 577.915 764.502L578.886 764.781C578.886 764.781 566.915 827.22 566.915 830.737C563.783 832.795 561.578 836.83 558.415 834.84C555.951 833.29 556.37 830.301 555.415 827.22Z" fill="#5383FF"/>
<path fill-rule="evenodd" clip-rule="evenodd" d="M944.33 843.64C944.33 839.537 966.83 780.922 966.83 780.922L967.801 781.201C967.801 781.201 955.83 843.64 955.83 847.157C952.698 849.215 950.493 853.25 947.33 851.26C944.866 849.71 945.284 846.721 944.33 843.64Z" fill="#5383FF"/>
<path fill-rule="evenodd" clip-rule="evenodd" d="M517.33 864.945C517.33 860.842 539.83 802.226 539.83 802.226L540.801 802.506C540.801 802.506 528.829 864.945 528.829 868.462C525.698 870.52 523.493 874.555 520.33 872.565C517.866 871.015 518.284 868.025 517.33 864.945Z" fill="#5383FF"/>
<path fill-rule="evenodd" clip-rule="evenodd" d="M817.415 874.12C817.415 870.017 839.915 811.402 839.915 811.402L840.886 811.681C840.886 811.681 828.915 874.12 828.915 877.637C825.783 879.695 823.578 883.73 820.415 881.74C817.951 880.19 818.37 877.201 817.415 874.12Z" fill="#5383FF"/>
<path fill-rule="evenodd" clip-rule="evenodd" d="M414.415 794.395C414.415 790.292 436.915 731.677 436.915 731.677L437.886 731.957C437.886 731.957 425.915 794.395 425.915 797.912C422.783 799.97 420.578 804.006 417.415 802.015C414.951 800.465 415.369 797.476 414.415 794.395Z" fill="#5383FF"/>
<path fill-rule="evenodd" clip-rule="evenodd" d="M452.329 768.816C452.329 764.713 474.829 706.097 474.829 706.097L475.801 706.377C475.801 706.377 463.829 768.816 463.829 772.333C460.698 774.391 458.492 778.426 455.329 776.436C452.866 774.886 453.284 771.896 452.329 768.816Z" fill="#5383FF"/>
<path fill-rule="evenodd" clip-rule="evenodd" d="M308.415 868.125C308.415 864.022 330.915 805.406 330.915 805.406L331.886 805.686C331.886 805.686 319.915 868.125 319.915 871.642C316.784 873.7 314.578 877.735 311.415 875.745C308.952 874.195 309.37 871.205 308.415 868.125Z" fill="#5383FF"/>
<path fill-rule="evenodd" clip-rule="evenodd" d="M346.33 842.545C346.33 838.442 368.83 779.826 368.83 779.826L369.801 780.106C369.801 780.106 357.83 842.545 357.83 846.062C354.698 848.12 352.493 852.155 349.33 850.165C346.866 848.615 347.284 845.625 346.33 842.545Z" fill="#5383FF"/>
<path fill-rule="evenodd" clip-rule="evenodd" d="M401.5 875.159C401.5 871.055 424 812.44 424 812.44L424.971 812.72C424.971 812.72 413 875.159 413 878.675C409.869 880.734 407.663 884.769 404.5 882.779C402.037 881.229 402.455 878.239 401.5 875.159Z" fill="#5383FF"/>
<path fill-rule="evenodd" clip-rule="evenodd" d="M439.415 849.579C439.415 845.476 461.915 786.86 461.915 786.86L462.886 787.14C462.886 787.14 450.915 849.579 450.915 853.096C447.783 855.154 445.578 859.189 442.415 857.199C439.951 855.649 440.37 852.659 439.415 849.579Z" fill="#5383FF"/>
<path fill-rule="evenodd" clip-rule="evenodd" d="M387.415 811.854C387.415 807.751 409.915 749.135 409.915 749.135L410.886 749.415C410.886 749.415 398.915 811.854 398.915 815.371C395.783 817.429 393.578 821.464 390.415 819.474C387.951 817.924 388.37 814.934 387.415 811.854Z" fill="#5383FF"/>
<path fill-rule="evenodd" clip-rule="evenodd" d="M425.33 786.274C425.33 782.171 447.83 723.556 447.83 723.556L448.801 723.835C448.801 723.835 436.829 786.274 436.829 789.791C433.698 791.849 431.493 795.884 428.33 793.894C425.866 792.344 426.284 789.354 425.33 786.274Z" fill="#5383FF"/>
<path fill-rule="evenodd" clip-rule="evenodd" d="M1197.5 801.429C1197.5 797.326 1220 738.711 1220 738.711L1220.97 738.99C1220.97 738.99 1209 801.429 1209 804.946C1205.87 807.004 1203.66 811.039 1200.5 809.049C1198.04 807.499 1198.45 804.51 1197.5 801.429Z" fill="#5383FF"/>
<path fill-rule="evenodd" clip-rule="evenodd" d="M1235.41 775.849C1235.41 771.746 1257.91 713.131 1257.91 713.131L1258.89 713.411C1258.89 713.411 1246.91 775.849 1246.91 779.366C1243.78 781.424 1241.58 785.46 1238.41 783.469C1235.95 781.919 1236.37 778.93 1235.41 775.849Z" fill="#5383FF"/>
<path fill-rule="evenodd" clip-rule="evenodd" d="M1183.41 738.125C1183.41 734.021 1205.91 675.406 1205.91 675.406L1206.89 675.686C1206.89 675.686 1194.91 738.125 1194.91 741.641C1191.78 743.7 1189.58 747.735 1186.41 745.745C1183.95 744.195 1184.37 741.205 1183.41 738.125Z" fill="#5383FF"/>
<path fill-rule="evenodd" clip-rule="evenodd" d="M1221.33 712.545C1221.33 708.442 1243.83 649.826 1243.83 649.826L1244.8 650.106C1244.8 650.106 1232.83 712.545 1232.83 716.062C1229.7 718.12 1227.49 722.155 1224.33 720.165C1221.87 718.615 1222.28 715.625 1221.33 712.545Z" fill="#5383FF"/>
<path fill-rule="evenodd" clip-rule="evenodd" d="M1276.5 745.159C1276.5 741.055 1299 682.44 1299 682.44L1299.97 682.72C1299.97 682.72 1288 745.159 1288 748.675C1284.87 750.733 1282.66 754.769 1279.5 752.778C1277.04 751.229 1277.45 748.239 1276.5 745.159Z" fill="#5383FF"/>
<path fill-rule="evenodd" clip-rule="evenodd" d="M1262.41 681.854C1262.41 677.751 1284.91 619.135 1284.91 619.135L1285.89 619.415C1285.89 619.415 1273.91 681.854 1273.91 685.371C1270.78 687.429 1268.58 691.464 1265.41 689.474C1262.95 687.924 1263.37 684.934 1262.41 681.854Z" fill="#5383FF"/>
<path fill-rule="evenodd" clip-rule="evenodd" d="M1264.5 890.525C1264.5 886.422 1287 827.806 1287 827.806L1287.97 828.086C1287.97 828.086 1276 890.525 1276 894.042C1272.87 896.1 1270.66 900.135 1267.5 898.145C1265.04 896.595 1265.45 893.605 1264.5 890.525Z" fill="#5383FF"/>
<path fill-rule="evenodd" clip-rule="evenodd" d="M1250.41 827.22C1250.41 823.117 1272.91 764.502 1272.91 764.502L1273.89 764.781C1273.89 764.781 1261.91 827.22 1261.91 830.737C1258.78 832.795 1256.58 836.83 1253.41 834.84C1250.95 833.29 1251.37 830.301 1250.41 827.22Z" fill="#5383FF"/>
<path fill-rule="evenodd" clip-rule="evenodd" d="M1174.41 890.525C1174.41 886.422 1196.91 827.806 1196.91 827.806L1197.89 828.086C1197.89 828.086 1185.91 890.525 1185.91 894.042C1182.78 896.1 1180.58 900.135 1177.41 898.145C1174.95 896.595 1175.37 893.605 1174.41 890.525Z" fill="#5383FF"/>
<path fill-rule="evenodd" clip-rule="evenodd" d="M1212.33 864.945C1212.33 860.842 1234.83 802.226 1234.83 802.226L1235.8 802.506C1235.8 802.506 1223.83 864.945 1223.83 868.462C1220.7 870.52 1218.49 874.555 1215.33 872.565C1212.87 871.015 1213.28 868.025 1212.33 864.945Z" fill="#5383FF"/>
<path fill-rule="evenodd" clip-rule="evenodd" d="M1123.5 857.7C1123.5 853.597 1146 794.982 1146 794.982L1146.97 795.261C1146.97 795.261 1135 857.7 1135 861.217C1131.87 863.275 1129.66 867.31 1126.5 865.32C1124.04 863.77 1124.45 860.78 1123.5 857.7Z" fill="#5383FF"/>
<path fill-rule="evenodd" clip-rule="evenodd" d="M1161.41 832.12C1161.41 828.017 1183.91 769.402 1183.91 769.402L1184.89 769.681C1184.89 769.681 1172.91 832.12 1172.91 835.637C1169.78 837.695 1167.58 841.73 1164.41 839.74C1161.95 838.19 1162.37 835.201 1161.41 832.12Z" fill="#5383FF"/>
<path fill-rule="evenodd" clip-rule="evenodd" d="M1109.41 794.395C1109.41 790.292 1131.91 731.677 1131.91 731.677L1132.89 731.957C1132.89 731.957 1120.91 794.395 1120.91 797.912C1117.78 799.97 1115.58 804.006 1112.41 802.015C1109.95 800.466 1110.37 797.476 1109.41 794.395Z" fill="#5383FF"/>
<path fill-rule="evenodd" clip-rule="evenodd" d="M1147.33 768.816C1147.33 764.713 1169.83 706.097 1169.83 706.097L1170.8 706.377C1170.8 706.377 1158.83 768.816 1158.83 772.333C1155.7 774.391 1153.49 778.426 1150.33 776.436C1147.87 774.886 1148.28 771.896 1147.33 768.816Z" fill="#5383FF"/>
<path fill-rule="evenodd" clip-rule="evenodd" d="M1129.5 666.274C1129.5 662.171 1152 603.556 1152 603.556L1152.97 603.835C1152.97 603.835 1141 666.274 1141 669.791C1137.87 671.849 1135.66 675.884 1132.5 673.894C1130.04 672.344 1130.45 669.355 1129.5 666.274Z" fill="#5383FF"/>
<path fill-rule="evenodd" clip-rule="evenodd" d="M1131.59 874.945C1131.59 870.842 1154.09 812.226 1154.09 812.226L1155.06 812.506C1155.06 812.506 1143.09 874.945 1143.09 878.462C1139.95 880.52 1137.75 884.555 1134.59 882.565C1132.12 881.015 1132.54 878.025 1131.59 874.945Z" fill="#5383FF"/>
<path fill-rule="evenodd" clip-rule="evenodd" d="M1117.5 811.64C1117.5 807.537 1140 748.922 1140 748.922L1140.97 749.201C1140.97 749.201 1129 811.64 1129 815.157C1125.87 817.215 1123.66 821.25 1120.5 819.26C1118.04 817.71 1118.45 814.721 1117.5 811.64Z" fill="#5383FF"/>
<path fill-rule="evenodd" clip-rule="evenodd" d="M1079.41 849.365C1079.41 845.262 1101.91 786.647 1101.91 786.647L1102.89 786.926C1102.89 786.926 1090.91 849.365 1090.91 852.882C1087.78 854.94 1085.58 858.975 1082.41 856.985C1079.95 855.435 1080.37 852.445 1079.41 849.365Z" fill="#5383FF"/>
<path fill-rule="evenodd" clip-rule="evenodd" d="M1028.5 816.54C1028.5 812.437 1051 753.822 1051 753.822L1051.97 754.102C1051.97 754.102 1040 816.54 1040 820.057C1036.87 822.115 1034.66 826.151 1031.5 824.16C1029.04 822.61 1029.45 819.621 1028.5 816.54Z" fill="#5383FF"/>
<path fill-rule="evenodd" clip-rule="evenodd" d="M1014.41 753.236C1014.41 749.133 1036.91 690.517 1036.91 690.517L1037.89 690.797C1037.89 690.797 1025.91 753.236 1025.91 756.753C1022.78 758.811 1020.58 762.846 1017.41 760.856C1014.95 759.306 1015.37 756.316 1014.41 753.236Z" fill="#5383FF"/>
<path fill-rule="evenodd" clip-rule="evenodd" d="M595.415 855.849C595.415 851.746 617.915 793.131 617.915 793.131L618.886 793.411C618.886 793.411 606.915 855.849 606.915 859.366C603.784 861.424 601.578 865.46 598.415 863.469C595.952 861.919 596.37 858.93 595.415 855.849Z" fill="#5383FF"/>
<path fill-rule="evenodd" clip-rule="evenodd" d="M894.415 860.125C894.415 856.022 916.915 797.406 916.915 797.406L917.886 797.686C917.886 797.686 905.915 860.125 905.915 863.642C902.784 865.7 900.578 869.735 897.415 867.745C894.952 866.195 895.37 863.205 894.415 860.125Z" fill="#5383FF"/>
<path fill-rule="evenodd" clip-rule="evenodd" d="M932.33 834.545C932.33 830.442 954.83 771.826 954.83 771.826L955.801 772.106C955.801 772.106 943.83 834.545 943.83 838.062C940.698 840.12 938.493 844.155 935.33 842.165C932.866 840.615 933.285 837.625 932.33 834.545Z" fill="#5383FF"/>
<path fill-rule="evenodd" clip-rule="evenodd" d="M636.5 825.158C636.5 821.055 659 762.44 659 762.44L659.971 762.72C659.971 762.72 648 825.158 648 828.675C644.869 830.733 642.663 834.769 639.5 832.778C637.037 831.229 637.455 828.239 636.5 825.158Z" fill="#5383FF"/>
<path fill-rule="evenodd" clip-rule="evenodd" d="M1025.41 841.579C1025.41 837.476 1047.92 778.86 1047.92 778.86L1048.89 779.14C1048.89 779.14 1036.91 841.579 1036.91 845.096C1033.78 847.154 1031.58 851.189 1028.42 849.199C1025.95 847.649 1026.37 844.659 1025.41 841.579Z" fill="#5383FF"/>
<path fill-rule="evenodd" clip-rule="evenodd" d="M973.415 803.854C973.415 799.751 995.915 741.135 995.915 741.135L996.886 741.415C996.886 741.415 984.915 803.854 984.915 807.371C981.784 809.429 979.578 813.464 976.415 811.474C973.952 809.924 974.37 806.934 973.415 803.854Z" fill="#5383FF"/>
<path fill-rule="evenodd" clip-rule="evenodd" d="M660.33 736.274C660.33 732.171 682.83 673.556 682.83 673.556L683.801 673.835C683.801 673.835 671.83 736.274 671.83 739.791C668.698 741.849 666.493 745.884 663.33 743.894C660.866 742.344 661.285 739.354 660.33 736.274Z" fill="#5383FF"/>
<path fill-rule="evenodd" clip-rule="evenodd" d="M469.415 874.395C469.415 870.292 491.915 811.677 491.915 811.677L492.886 811.957C492.886 811.957 480.915 874.395 480.915 877.912C477.783 879.97 475.578 884.006 472.415 882.015C469.951 880.465 470.37 877.476 469.415 874.395Z" fill="#5383FF"/>
<path fill-rule="evenodd" clip-rule="evenodd" d="M507.33 848.816C507.33 844.712 529.83 786.097 529.83 786.097L530.801 786.377C530.801 786.377 518.829 848.816 518.829 852.332C515.698 854.39 513.493 858.426 510.33 856.436C507.866 854.886 508.284 851.896 507.33 848.816Z" fill="#5383FF"/>
<path fill-rule="evenodd" clip-rule="evenodd" d="M373.5 850.429C373.5 846.326 396 787.711 396 787.711L396.971 787.99C396.971 787.99 385 850.429 385 853.946C381.869 856.004 379.663 860.039 376.5 858.049C374.037 856.499 374.455 853.51 373.5 850.429Z" fill="#5383FF"/>
<path fill-rule="evenodd" clip-rule="evenodd" d="M411.415 824.849C411.415 820.746 433.915 762.131 433.915 762.131L434.886 762.411C434.886 762.411 422.915 824.849 422.915 828.366C419.784 830.424 417.578 834.46 414.415 832.469C411.952 830.919 412.37 827.93 411.415 824.849Z" fill="#5383FF"/>
<path fill-rule="evenodd" clip-rule="evenodd" d="M359.415 787.125C359.415 783.022 381.915 724.406 381.915 724.406L382.886 724.686C382.886 724.686 370.915 787.125 370.915 790.642C367.784 792.7 365.578 796.735 362.415 794.745C359.952 793.195 360.37 790.205 359.415 787.125Z" fill="#5383FF"/>
<path fill-rule="evenodd" clip-rule="evenodd" d="M397.33 761.545C397.33 757.442 419.83 698.826 419.83 698.826L420.801 699.106C420.801 699.106 408.83 761.545 408.83 765.062C405.698 767.12 403.493 771.155 400.33 769.165C397.866 767.615 398.284 764.625 397.33 761.545Z" fill="#5383FF"/>
<path fill-rule="evenodd" clip-rule="evenodd" d="M452.5 794.159C452.5 790.055 475 731.44 475 731.44L475.971 731.72C475.971 731.72 464 794.159 464 797.675C460.869 799.733 458.663 803.769 455.5 801.778C453.037 800.229 453.455 797.239 452.5 794.159Z" fill="#5383FF"/>
<path fill-rule="evenodd" clip-rule="evenodd" d="M490.415 768.579C490.415 764.476 512.915 705.86 512.915 705.86L513.886 706.14C513.886 706.14 501.915 768.579 501.915 772.096C498.783 774.154 496.578 778.189 493.415 776.199C490.951 774.649 491.37 771.659 490.415 768.579Z" fill="#5383FF"/>
<path fill-rule="evenodd" clip-rule="evenodd" d="M438.415 730.854C438.415 726.751 460.915 668.135 460.915 668.135L461.886 668.415C461.886 668.415 449.915 730.854 449.915 734.371C446.783 736.429 444.578 740.464 441.415 738.474C438.951 736.924 439.37 733.934 438.415 730.854Z" fill="#5383FF"/>
<path fill-rule="evenodd" clip-rule="evenodd" d="M476.33 705.274C476.33 701.171 498.83 642.556 498.83 642.556L499.801 642.835C499.801 642.835 487.829 705.274 487.829 708.791C484.698 710.849 482.493 714.884 479.33 712.894C476.866 711.344 477.284 708.354 476.33 705.274Z" fill="#5383FF"/>
<path fill-rule="evenodd" clip-rule="evenodd" d="M426.415 876.22C426.415 872.117 448.915 813.502 448.915 813.502L449.886 813.781C449.886 813.781 437.915 876.22 437.915 879.737C434.783 881.795 432.578 885.83 429.415 883.84C426.951 882.29 427.37 879.301 426.415 876.22Z" fill="#5383FF"/>
<path fill-rule="evenodd" clip-rule="evenodd" d="M464.33 850.64C464.33 846.537 486.83 787.922 486.83 787.922L487.801 788.201C487.801 788.201 475.829 850.64 475.829 854.157C472.698 856.215 470.493 860.25 467.33 858.26C464.866 856.71 465.284 853.721 464.33 850.64Z" fill="#5383FF"/>
<path fill-rule="evenodd" clip-rule="evenodd" d="M337.415 881.12C337.415 877.017 359.915 818.402 359.915 818.402L360.886 818.681C360.886 818.681 348.915 881.12 348.915 884.637C345.783 886.695 343.578 890.73 340.415 888.74C337.951 887.19 338.37 884.201 337.415 881.12Z" fill="#5383FF"/>
<path fill-rule="evenodd" clip-rule="evenodd" d="M285.415 843.395C285.415 839.292 307.915 780.677 307.915 780.677L308.886 780.957C308.886 780.957 296.915 843.395 296.915 846.912C293.783 848.97 291.578 853.006 288.415 851.015C285.952 849.465 286.37 846.476 285.415 843.395Z" fill="#5383FF"/>
<path fill-rule="evenodd" clip-rule="evenodd" d="M323.33 817.816C323.33 813.712 345.83 755.097 345.83 755.097L346.801 755.377C346.801 755.377 334.829 817.816 334.829 821.332C331.698 823.39 329.493 827.426 326.33 825.436C323.866 823.886 324.284 820.896 323.33 817.816Z" fill="#5383FF"/>
<path fill-rule="evenodd" clip-rule="evenodd" d="M739.5 853.429C739.5 849.326 762 790.711 762 790.711L762.971 790.99C762.971 790.99 751 853.429 751 856.946C747.869 859.004 745.663 863.039 742.5 861.049C740.037 859.499 740.455 856.509 739.5 853.429Z" fill="#5383FF"/>
<path fill-rule="evenodd" clip-rule="evenodd" d="M777.415 827.849C777.415 823.746 799.915 765.131 799.915 765.131L800.886 765.41C800.886 765.41 788.915 827.849 788.915 831.366C785.784 833.424 783.578 837.459 780.415 835.469C777.952 833.919 778.37 830.93 777.415 827.849Z" fill="#5383FF"/>
<path fill-rule="evenodd" clip-rule="evenodd" d="M725.415 790.125C725.415 786.021 747.915 727.406 747.915 727.406L748.886 727.686C748.886 727.686 736.915 790.125 736.915 793.641C733.784 795.699 731.578 799.735 728.415 797.744C725.952 796.195 726.37 793.205 725.415 790.125Z" fill="#5383FF"/>
<path fill-rule="evenodd" clip-rule="evenodd" d="M763.33 764.545C763.33 760.442 785.83 701.826 785.83 701.826L786.801 702.106C786.801 702.106 774.83 764.545 774.83 768.062C771.698 770.12 769.493 774.155 766.33 772.165C763.866 770.615 764.285 767.625 763.33 764.545Z" fill="#5383FF"/>
<path fill-rule="evenodd" clip-rule="evenodd" d="M818.5 797.158C818.5 793.055 841 734.44 841 734.44L841.971 734.72C841.971 734.72 830 797.158 830 800.675C826.869 802.733 824.663 806.769 821.5 804.778C819.037 803.229 819.455 800.239 818.5 797.158Z" fill="#5383FF"/>
<path fill-rule="evenodd" clip-rule="evenodd" d="M856.415 771.579C856.415 767.476 878.915 708.86 878.915 708.86L879.886 709.14C879.886 709.14 867.915 771.579 867.915 775.096C864.784 777.154 862.578 781.189 859.415 779.199C856.952 777.649 857.37 774.659 856.415 771.579Z" fill="#5383FF"/>
<path fill-rule="evenodd" clip-rule="evenodd" d="M840.5 467.274C840.5 463.171 863 404.556 863 404.556L863.971 404.835C863.971 404.835 852 467.274 852 470.791C848.869 472.849 846.663 476.884 843.5 474.894C841.037 473.344 841.455 470.354 840.5 467.274Z" fill="#5383FF"/>
<path fill-rule="evenodd" clip-rule="evenodd" d="M842.33 708.274C842.33 704.171 864.83 645.556 864.83 645.556L865.801 645.835C865.801 645.835 853.83 708.274 853.83 711.791C850.698 713.849 848.493 717.884 845.33 715.894C842.866 714.344 843.285 711.354 842.33 708.274Z" fill="#5383FF"/>
<path fill-rule="evenodd" clip-rule="evenodd" d="M842.585 675.945C842.585 671.842 865.085 613.226 865.085 613.226L866.056 613.506C866.056 613.506 854.085 675.945 854.085 679.462C850.954 681.52 848.748 685.555 845.585 683.565C843.122 682.015 843.54 679.025 842.585 675.945Z" fill="#5383FF"/>
<path fill-rule="evenodd" clip-rule="evenodd" d="M828.5 612.64C828.5 608.537 851 549.922 851 549.922L851.971 550.201C851.971 550.201 840 612.64 840 616.157C836.869 618.215 834.663 622.25 831.5 620.26C829.037 618.71 829.455 615.721 828.5 612.64Z" fill="#5383FF"/>
<path fill-rule="evenodd" clip-rule="evenodd" d="M830.33 853.64C830.33 849.537 852.83 790.922 852.83 790.922L853.801 791.201C853.801 791.201 841.83 853.64 841.83 857.157C838.698 859.215 836.493 863.25 833.33 861.26C830.866 859.71 831.285 856.721 830.33 853.64Z" fill="#5383FF"/>
<path fill-rule="evenodd" clip-rule="evenodd" d="M766.585 739.25C766.585 735.146 789.085 676.531 789.085 676.531L790.056 676.811C790.056 676.811 778.085 739.25 778.085 742.766C774.954 744.824 772.748 748.86 769.585 746.869C767.122 745.32 767.54 742.33 766.585 739.25Z" fill="#5383FF"/>
<path fill-rule="evenodd" clip-rule="evenodd" d="M790.415 650.365C790.415 646.262 812.915 587.647 812.915 587.647L813.886 587.926C813.886 587.926 801.915 650.365 801.915 653.882C798.784 655.94 796.578 659.975 793.415 657.985C790.952 656.435 791.37 653.445 790.415 650.365Z" fill="#5383FF"/>
<path fill-rule="evenodd" clip-rule="evenodd" d="M739.5 617.54C739.5 613.437 762 554.822 762 554.822L762.971 555.102C762.971 555.102 751 617.54 751 621.057C747.869 623.115 745.663 627.151 742.5 625.16C740.037 623.61 740.455 620.621 739.5 617.54Z" fill="#5383FF"/>
<path fill-rule="evenodd" clip-rule="evenodd" d="M651.415 846.395C651.415 842.292 673.915 783.677 673.915 783.677L674.886 783.957C674.886 783.957 662.915 846.395 662.915 849.912C659.783 851.97 657.578 856.006 654.415 854.015C651.951 852.465 652.37 849.476 651.415 846.395Z" fill="#5383FF"/>
<path fill-rule="evenodd" clip-rule="evenodd" d="M725.415 554.236C725.415 550.133 747.915 491.517 747.915 491.517L748.886 491.797C748.886 491.797 736.915 554.236 736.915 557.753C733.783 559.811 731.578 563.846 728.415 561.856C725.951 560.306 726.37 557.316 725.415 554.236Z" fill="#5383FF"/>
<path d="M-153.897 -75.3263C-184.209 -43.4827 -183.433 -5.06665 -183.992 43.4228C-184.896 121.919 -165.666 171.286 -110.788 224C-59.1696 273.583 -11.1747 282.945 60 290.5C158.399 300.945 205.612 227.561 304.5 224C402.7 220.463 453.327 267.76 551.5 272C677.845 277.457 745.288 223.776 871.75 224C996.733 224.222 1066.07 298.69 1188.17 272C1239.37 260.808 1262.35 235.438 1313.5 224C1390.35 206.815 1465.42 285.064 1515.15 224C1541.22 191.977 1550.92 162.71 1542.8 121.935C1533.24 73.9193 1497.67 64.4858 1460.65 43.4228C1426.99 24.271 1383.81 57.5273 1367.93 16.925C1359.25 -5.25562 1374.26 -22.5757 1367.93 -45.8844C1355.03 -93.37 1315.18 -91.4906 1278.45 -114.582C1244.5 -135.931 1180.08 -115.553 1188.17 -160.708C1192.63 -185.607 1218.73 -183.097 1226.4 -206.834C1239.88 -248.568 1215.11 -281.022 1188.17 -311.843C1158.14 -346.205 1128.59 -347.467 1087.31 -351.099C1033.83 -355.806 1001.85 -282.85 953.919 -311.843C920.638 -331.973 922.185 -371.035 896.982 -404.095C869.389 -440.29 850.991 -457.511 818.085 -486.532C769.067 -529.763 742.603 -569.775 682.252 -577.802C606.549 -587.871 568.46 -532.467 502.496 -486.532C448.895 -449.206 403.337 -440.39 373.983 -374.653C348.092 -316.672 402.329 -248.645 360.155 -206.834C337.095 -183.971 316.257 -187.161 286.952 -180.336C231.748 -167.479 194.133 -208.499 142.985 -180.336C80.5331 -145.95 109.262 10.6512 42.1262 -6.62848C8.15833 -15.3712 5.62775 -58.5427 -26.1972 -75.3263C-71.8929 -99.425 -116.285 -114.838 -153.897 -75.3263Z" fill="#B0B0B0" stroke="black" stroke-width="8"/>
</g>
<defs>
<radialGradient id="paint0_radial_1_32" cx="0" cy="0" r="1" gradientUnits="userSpaceOnUse" gradientTransform="translate(640 320.5) rotate(90) scale(617.5 950)">
<stop stop-color="#798196"/>
<stop offset="0.776042" stop-color="#5D6884"/>
</radialGradient>
<clipPath id="clip0_1_32">
<rect width="1280" height="832" fill="white"/>
</clipPath>
</defs>
</svg>
