<svg width="1280" height="832" viewBox="0 0 1280 832" fill="none" xmlns="http://www.w3.org/2000/svg">
<g clip-path="url(#clip0_1_1135)">
<rect width="1280" height="832" fill="url(#paint0_linear_1_1135)"/>
<path fill-rule="evenodd" clip-rule="evenodd" d="M169.415 93.4292C169.415 89.3261 191.915 30.7108 191.915 30.7108L192.886 30.9904C192.886 30.9904 180.915 93.4292 180.915 96.9461C177.784 99.0041 175.578 103.039 172.415 101.049C169.952 99.4993 170.37 96.5096 169.415 93.4292Z" fill="#5383FF"/>
<path fill-rule="evenodd" clip-rule="evenodd" d="M68.4148 56.8494C68.4148 52.7463 90.9149 -5.86906 90.9149 -5.86906L91.886 -5.58943C91.886 -5.58943 79.9148 56.8494 79.9148 60.3663C76.7835 62.4243 74.5779 66.4595 71.4149 64.4694C68.9516 62.9194 69.3697 59.9298 68.4148 56.8494Z" fill="#5383FF"/>
<path fill-rule="evenodd" clip-rule="evenodd" d="M16.4148 19.1246C16.4148 15.0214 38.9149 -43.5939 38.9149 -43.5939L39.886 -43.3143C39.886 -43.3143 27.9148 19.1245 27.9148 22.6414C24.7835 24.6995 22.5779 28.7346 19.4149 26.7445C16.9516 25.1946 17.3697 22.2049 16.4148 19.1246Z" fill="#5383FF"/>
<path fill-rule="evenodd" clip-rule="evenodd" d="M193.244 4.54472C193.244 0.441586 215.744 -58.1737 215.744 -58.1737L216.716 -57.8941C216.716 -57.8941 204.744 4.54469 204.744 8.0616C201.613 10.1196 199.408 14.1548 196.245 12.1647C193.781 10.6147 194.199 7.6251 193.244 4.54472Z" fill="#5383FF"/>
<path fill-rule="evenodd" clip-rule="evenodd" d="M109.5 26.1585C109.5 22.0554 132 -36.56 132 -36.56L132.971 -36.2803C132.971 -36.2803 121 26.1585 121 29.6754C117.869 31.7334 115.663 35.7686 112.5 33.7784C110.037 32.2285 110.455 29.2389 109.5 26.1585Z" fill="#5383FF"/>
<path fill-rule="evenodd" clip-rule="evenodd" d="M147.415 0.57866C147.415 -3.52448 169.915 -62.1398 169.915 -62.1398L170.886 -61.8602C170.886 -61.8602 158.915 0.578626 158.915 4.09554C155.783 6.15356 153.578 10.1888 150.415 8.1986C147.952 6.64868 148.37 3.65903 147.415 0.57866Z" fill="#5383FF"/>
<path fill-rule="evenodd" clip-rule="evenodd" d="M97.5 171.525C97.5 167.422 120 108.806 120 108.806L120.971 109.086C120.971 109.086 109 171.525 109 175.042C105.869 177.1 103.663 181.135 100.5 179.145C98.0367 177.595 98.4548 174.605 97.5 171.525Z" fill="#5383FF"/>
<path fill-rule="evenodd" clip-rule="evenodd" d="M135.415 145.945C135.415 141.842 157.915 83.2264 157.915 83.2264L158.886 83.506C158.886 83.506 146.915 145.945 146.915 149.462C143.783 151.52 141.578 155.555 138.415 153.565C135.952 152.015 136.37 149.025 135.415 145.945Z" fill="#5383FF"/>
<path fill-rule="evenodd" clip-rule="evenodd" d="M222.33 119.22C222.33 115.117 244.83 56.5015 244.83 56.5015L245.801 56.7812C245.801 56.7812 233.83 119.22 233.83 122.737C230.698 124.795 228.493 128.83 225.33 126.84C222.866 125.29 223.284 122.3 222.33 119.22Z" fill="#5383FF"/>
<path fill-rule="evenodd" clip-rule="evenodd" d="M121.33 82.6402C121.33 78.537 143.83 19.9217 143.83 19.9217L144.801 20.2013C144.801 20.2013 132.83 82.6401 132.83 86.1571C129.698 88.2151 127.493 92.2503 124.33 90.2601C121.866 88.7102 122.284 85.7206 121.33 82.6402Z" fill="#5383FF"/>
<path fill-rule="evenodd" clip-rule="evenodd" d="M21.5 234.829C21.5 230.726 44.0001 172.111 44.0001 172.111L44.9712 172.39C44.9712 172.39 33 234.829 33 238.346C29.8687 240.404 27.6632 244.439 24.5001 242.449C22.0368 240.899 22.4549 237.91 21.5 234.829Z" fill="#5383FF"/>
<path fill-rule="evenodd" clip-rule="evenodd" d="M45.3296 145.945C45.3296 141.842 67.8297 83.2264 67.8297 83.2264L68.8008 83.506C68.8008 83.506 56.8296 145.945 56.8296 149.462C53.6983 151.52 51.4927 155.555 48.3297 153.565C45.8664 152.015 46.2845 149.025 45.3296 145.945Z" fill="#5383FF"/>
<path fill-rule="evenodd" clip-rule="evenodd" d="M95.4148 149.7C95.4148 145.597 117.915 86.9815 117.915 86.9815L118.886 87.2612C118.886 87.2612 106.915 149.7 106.915 153.217C103.783 155.275 101.578 159.31 98.4149 157.32C95.9515 155.77 96.3696 152.78 95.4148 149.7Z" fill="#5383FF"/>
<path fill-rule="evenodd" clip-rule="evenodd" d="M-5.58523 113.12C-5.58523 109.017 16.9148 50.4017 16.9148 50.4017L17.886 50.6813C17.886 50.6813 5.91474 113.12 5.91474 116.637C2.78347 118.695 0.577887 122.73 -2.58514 120.74C-5.04849 119.19 -4.6304 116.201 -5.58523 113.12Z" fill="#5383FF"/>
<path fill-rule="evenodd" clip-rule="evenodd" d="M119.244 60.8156C119.244 56.7125 141.744 -1.90287 141.744 -1.90287L142.716 -1.62324C142.716 -1.62324 130.744 60.8156 130.744 64.3325C127.613 66.3905 125.407 70.4257 122.244 68.4355C119.781 66.8856 120.199 63.896 119.244 60.8156Z" fill="#5383FF"/>
<path fill-rule="evenodd" clip-rule="evenodd" d="M853.5 11.4292C853.5 7.32611 876 -51.2892 876 -51.2892L876.971 -51.0096C876.971 -51.0096 865 11.4292 865 14.9461C861.869 17.0041 859.663 21.0393 856.5 19.0492C854.037 17.4993 854.455 14.5096 853.5 11.4292Z" fill="#5383FF"/>
<path fill-rule="evenodd" clip-rule="evenodd" d="M920.5 100.525C920.5 96.4216 943 37.8062 943 37.8062L943.971 38.0859C943.971 38.0859 932 100.525 932 104.042C928.869 106.1 926.663 110.135 923.5 108.145C921.037 106.595 921.455 103.605 920.5 100.525Z" fill="#5383FF"/>
<path fill-rule="evenodd" clip-rule="evenodd" d="M958.415 74.9449C958.415 70.8417 980.915 12.2264 980.915 12.2264L981.886 12.506C981.886 12.506 969.915 74.9448 969.915 78.4617C966.784 80.5198 964.578 84.555 961.415 82.5648C958.952 81.0149 959.37 78.0252 958.415 74.9449Z" fill="#5383FF"/>
<path fill-rule="evenodd" clip-rule="evenodd" d="M555.415 -4.77986C555.415 -8.883 577.915 -67.4983 577.915 -67.4983L578.886 -67.2187C578.886 -67.2187 566.915 -4.77989 566.915 -1.26298C563.783 0.795035 561.578 4.83023 558.415 2.84008C555.951 1.29016 556.37 -1.69949 555.415 -4.77986Z" fill="#5383FF"/>
<path fill-rule="evenodd" clip-rule="evenodd" d="M944.33 11.6403C944.33 7.53717 966.83 -51.0782 966.83 -51.0782L967.801 -50.7985C967.801 -50.7985 955.83 11.6403 955.83 15.1572C952.698 17.2152 950.493 21.2504 947.33 19.2602C944.866 17.7103 945.284 14.7207 944.33 11.6403Z" fill="#5383FF"/>
<path fill-rule="evenodd" clip-rule="evenodd" d="M844.5 163.829C844.5 159.726 867 101.111 867 101.111L867.971 101.39C867.971 101.39 856 163.829 856 167.346C852.869 169.404 850.663 173.439 847.5 171.449C845.037 169.899 845.455 166.91 844.5 163.829Z" fill="#5383FF"/>
<path fill-rule="evenodd" clip-rule="evenodd" d="M531.415 96.2496C531.415 92.1464 553.915 33.5311 553.915 33.5311L554.886 33.8107C554.886 33.8107 542.915 96.2495 542.915 99.7664C539.783 101.824 537.578 105.86 534.415 103.869C531.951 102.32 532.37 99.3299 531.415 96.2496Z" fill="#5383FF"/>
<path fill-rule="evenodd" clip-rule="evenodd" d="M830.415 100.525C830.415 96.4216 852.915 37.8062 852.915 37.8062L853.886 38.0859C853.886 38.0859 841.915 100.525 841.915 104.042C838.784 106.1 836.578 110.135 833.415 108.145C830.952 106.595 831.37 103.605 830.415 100.525Z" fill="#5383FF"/>
<path fill-rule="evenodd" clip-rule="evenodd" d="M517.33 32.9449C517.33 28.8417 539.83 -29.7736 539.83 -29.7736L540.801 -29.494C540.801 -29.494 528.829 32.9448 528.829 36.4617C525.698 38.5198 523.493 42.555 520.33 40.5648C517.866 39.0149 518.284 36.0252 517.33 32.9449Z" fill="#5383FF"/>
<path fill-rule="evenodd" clip-rule="evenodd" d="M779.5 67.7001C779.5 63.597 802 4.98165 802 4.98165L802.971 5.26128C802.971 5.26128 791 67.7001 791 71.217C787.869 73.275 785.663 77.3102 782.5 75.3201C780.037 73.7701 780.455 70.7805 779.5 67.7001Z" fill="#5383FF"/>
<path fill-rule="evenodd" clip-rule="evenodd" d="M817.415 42.1203C817.415 38.0171 839.915 -20.5982 839.915 -20.5982L840.886 -20.3186C840.886 -20.3186 828.915 42.1203 828.915 45.6372C825.783 47.6952 823.578 51.7304 820.415 49.7402C817.951 48.1903 818.37 45.2007 817.415 42.1203Z" fill="#5383FF"/>
<path fill-rule="evenodd" clip-rule="evenodd" d="M525.33 151.323C525.33 147.22 547.83 88.6048 547.83 88.6048L548.801 88.8844C548.801 88.8844 536.829 151.323 536.829 154.84C533.698 156.898 531.493 160.933 528.33 158.943C525.866 157.393 526.284 154.404 525.33 151.323Z" fill="#5383FF"/>
<path fill-rule="evenodd" clip-rule="evenodd" d="M618.415 158.357C618.415 154.254 640.915 95.6388 640.915 95.6388L641.886 95.9184C641.886 95.9184 629.915 158.357 629.915 161.874C626.783 163.932 624.578 167.967 621.415 165.977C618.951 164.427 619.37 161.438 618.415 158.357Z" fill="#5383FF"/>
<path fill-rule="evenodd" clip-rule="evenodd" d="M566.415 120.632C566.415 116.529 588.915 57.914 588.915 57.914L589.886 58.1936C589.886 58.1936 577.915 120.632 577.915 124.149C574.783 126.207 572.578 130.243 569.415 128.252C566.951 126.703 567.37 123.713 566.415 120.632Z" fill="#5383FF"/>
<path fill-rule="evenodd" clip-rule="evenodd" d="M604.33 95.0527C604.33 90.9495 626.83 32.3342 626.83 32.3342L627.801 32.6138C627.801 32.6138 615.829 95.0526 615.829 98.5695C612.698 100.628 610.493 104.663 607.33 102.673C604.866 101.123 605.284 98.133 604.33 95.0527Z" fill="#5383FF"/>
<path fill-rule="evenodd" clip-rule="evenodd" d="M322.5 99.4292C322.5 95.3261 345 36.7108 345 36.7108L345.971 36.9904C345.971 36.9904 334 99.4292 334 102.946C330.869 105.004 328.663 109.039 325.5 107.049C323.037 105.499 323.455 102.51 322.5 99.4292Z" fill="#5383FF"/>
<path fill-rule="evenodd" clip-rule="evenodd" d="M360.415 73.8494C360.415 69.7463 382.915 11.1309 382.915 11.1309L383.886 11.4106C383.886 11.4106 371.915 73.8494 371.915 77.3663C368.784 79.4243 366.578 83.4595 363.415 81.4694C360.952 79.9194 361.37 76.9298 360.415 73.8494Z" fill="#5383FF"/>
<path fill-rule="evenodd" clip-rule="evenodd" d="M308.415 36.1247C308.415 32.0215 330.915 -26.5938 330.915 -26.5938L331.886 -26.3142C331.886 -26.3142 319.915 36.1246 319.915 39.6416C316.784 41.6996 314.578 45.7348 311.415 43.7446C308.952 42.1947 309.37 39.2051 308.415 36.1247Z" fill="#5383FF"/>
<path fill-rule="evenodd" clip-rule="evenodd" d="M346.33 10.5448C346.33 6.44171 368.83 -52.1736 368.83 -52.1736L369.801 -51.894C369.801 -51.894 357.83 10.5448 357.83 14.0617C354.698 16.1197 352.493 20.1549 349.33 18.1648C346.866 16.6149 347.284 13.6252 346.33 10.5448Z" fill="#5383FF"/>
<path fill-rule="evenodd" clip-rule="evenodd" d="M401.5 43.1586C401.5 39.0555 424 -19.5599 424 -19.5599L424.971 -19.2802C424.971 -19.2802 413 43.1586 413 46.6755C409.869 48.7335 407.663 52.7687 404.5 50.7786C402.037 49.2286 402.455 46.239 401.5 43.1586Z" fill="#5383FF"/>
<path fill-rule="evenodd" clip-rule="evenodd" d="M439.415 17.5788C439.415 13.4756 461.915 -45.1397 461.915 -45.1397L462.886 -44.8601C462.886 -44.8601 450.915 17.5787 450.915 21.0957C447.783 23.1537 445.578 27.1889 442.415 25.1987C439.951 23.6488 440.37 20.6592 439.415 17.5788Z" fill="#5383FF"/>
<path fill-rule="evenodd" clip-rule="evenodd" d="M427.415 162.945C427.415 158.842 449.915 100.226 449.915 100.226L450.886 100.506C450.886 100.506 438.915 162.945 438.915 166.462C435.783 168.52 433.578 172.555 430.415 170.565C427.951 169.015 428.37 166.025 427.415 162.945Z" fill="#5383FF"/>
<path fill-rule="evenodd" clip-rule="evenodd" d="M375.415 125.22C375.415 121.117 397.915 62.5017 397.915 62.5017L398.886 62.7813C398.886 62.7813 386.915 125.22 386.915 128.737C383.783 130.795 381.578 134.83 378.415 132.84C375.951 131.29 376.37 128.301 375.415 125.22Z" fill="#5383FF"/>
<path fill-rule="evenodd" clip-rule="evenodd" d="M413.33 99.6403C413.33 95.5372 435.83 36.9218 435.83 36.9218L436.801 37.2015C436.801 37.2015 424.829 99.6403 424.829 103.157C421.698 105.215 419.493 109.25 416.33 107.26C413.866 105.71 414.284 102.721 413.33 99.6403Z" fill="#5383FF"/>
<path fill-rule="evenodd" clip-rule="evenodd" d="M337.33 162.945C337.33 158.842 359.83 100.226 359.83 100.226L360.801 100.506C360.801 100.506 348.83 162.945 348.83 166.462C345.698 168.52 343.493 172.555 340.33 170.565C337.866 169.015 338.284 166.025 337.33 162.945Z" fill="#5383FF"/>
<path fill-rule="evenodd" clip-rule="evenodd" d="M248.5 155.7C248.5 151.597 271 92.9817 271 92.9817L271.971 93.2613C271.971 93.2613 260 155.7 260 159.217C256.869 161.275 254.663 165.31 251.5 163.32C249.037 161.77 249.455 158.78 248.5 155.7Z" fill="#5383FF"/>
<path fill-rule="evenodd" clip-rule="evenodd" d="M286.415 130.12C286.415 126.017 308.915 67.4018 308.915 67.4018L309.886 67.6814C309.886 67.6814 297.915 130.12 297.915 133.637C294.783 135.695 292.578 139.73 289.415 137.74C286.952 136.19 287.37 133.201 286.415 130.12Z" fill="#5383FF"/>
<path fill-rule="evenodd" clip-rule="evenodd" d="M234.415 92.3954C234.415 88.2923 256.915 29.677 256.915 29.677L257.886 29.9566C257.886 29.9566 245.915 92.3954 245.915 95.9123C242.783 97.9703 240.578 102.006 237.415 100.015C234.952 98.4655 235.37 95.4758 234.415 92.3954Z" fill="#5383FF"/>
<path fill-rule="evenodd" clip-rule="evenodd" d="M272.33 66.8156C272.33 62.7125 294.83 4.09713 294.83 4.09713L295.801 4.37676C295.801 4.37676 283.83 66.8156 283.83 70.3325C280.698 72.3905 278.493 76.4257 275.33 74.4355C272.866 72.8856 273.284 69.896 272.33 66.8156Z" fill="#5383FF"/>
<path fill-rule="evenodd" clip-rule="evenodd" d="M1264.5 58.5247C1264.5 54.4216 1287 -4.19376 1287 -4.19376L1287.97 -3.91414C1287.97 -3.91414 1276 58.5247 1276 62.0416C1272.87 64.0996 1270.66 68.1348 1267.5 66.1446C1265.04 64.5947 1265.45 61.6051 1264.5 58.5247Z" fill="#5383FF"/>
<path fill-rule="evenodd" clip-rule="evenodd" d="M1250.41 -4.77986C1250.41 -8.883 1272.91 -67.4983 1272.91 -67.4983L1273.89 -67.2187C1273.89 -67.2187 1261.91 -4.77989 1261.91 -1.26298C1258.78 0.795035 1256.58 4.83023 1253.41 2.84008C1250.95 1.29016 1251.37 -1.69949 1250.41 -4.77986Z" fill="#5383FF"/>
<path fill-rule="evenodd" clip-rule="evenodd" d="M1188.5 121.829C1188.5 117.726 1211 59.1109 1211 59.1109L1211.97 59.3905C1211.97 59.3905 1200 121.829 1200 125.346C1196.87 127.404 1194.66 131.439 1191.5 129.449C1189.04 127.899 1189.45 124.91 1188.5 121.829Z" fill="#5383FF"/>
<path fill-rule="evenodd" clip-rule="evenodd" d="M1226.41 96.2496C1226.41 92.1464 1248.91 33.5311 1248.91 33.5311L1249.89 33.8107C1249.89 33.8107 1237.91 96.2495 1237.91 99.7664C1234.78 101.824 1232.58 105.86 1229.41 103.869C1226.95 102.32 1227.37 99.3299 1226.41 96.2496Z" fill="#5383FF"/>
<path fill-rule="evenodd" clip-rule="evenodd" d="M1174.41 58.5247C1174.41 54.4216 1196.91 -4.19376 1196.91 -4.19376L1197.89 -3.91414C1197.89 -3.91414 1185.91 58.5247 1185.91 62.0416C1182.78 64.0996 1180.58 68.1348 1177.41 66.1446C1174.95 64.5947 1175.37 61.6051 1174.41 58.5247Z" fill="#5383FF"/>
<path fill-rule="evenodd" clip-rule="evenodd" d="M1212.33 32.9449C1212.33 28.8417 1234.83 -29.7736 1234.83 -29.7736L1235.8 -29.494C1235.8 -29.494 1223.83 32.9448 1223.83 36.4617C1220.7 38.5198 1218.49 42.555 1215.33 40.5648C1212.87 39.0149 1213.28 36.0252 1212.33 32.9449Z" fill="#5383FF"/>
<path fill-rule="evenodd" clip-rule="evenodd" d="M1123.5 25.7001C1123.5 21.597 1146 -37.0183 1146 -37.0183L1146.97 -36.7387C1146.97 -36.7387 1135 25.7001 1135 29.217C1131.87 31.275 1129.66 35.3102 1126.5 33.3201C1124.04 31.7701 1124.45 28.7805 1123.5 25.7001Z" fill="#5383FF"/>
<path fill-rule="evenodd" clip-rule="evenodd" d="M1161.41 0.120286C1161.41 -3.98285 1183.91 -62.5982 1183.91 -62.5982L1184.89 -62.3186C1184.89 -62.3186 1172.91 0.120252 1172.91 3.63716C1169.78 5.69518 1167.58 9.73038 1164.41 7.74023C1161.95 6.19031 1162.37 3.20066 1161.41 0.120286Z" fill="#5383FF"/>
<path fill-rule="evenodd" clip-rule="evenodd" d="M1014.41 157.125C1014.41 153.021 1036.92 94.4061 1036.92 94.4061L1037.89 94.6857C1037.89 94.6857 1025.91 157.125 1025.91 160.641C1022.78 162.699 1020.58 166.735 1017.42 164.744C1014.95 163.195 1015.37 160.205 1014.41 157.125Z" fill="#5383FF"/>
<path fill-rule="evenodd" clip-rule="evenodd" d="M1052.33 131.545C1052.33 127.442 1074.83 68.8263 1074.83 68.8263L1075.8 69.1059C1075.8 69.1059 1063.83 131.545 1063.83 135.062C1060.7 137.12 1058.49 141.155 1055.33 139.165C1052.87 137.615 1053.28 134.625 1052.33 131.545Z" fill="#5383FF"/>
<path fill-rule="evenodd" clip-rule="evenodd" d="M1107.5 164.158C1107.5 160.055 1130 101.44 1130 101.44L1130.97 101.72C1130.97 101.72 1119 164.158 1119 167.675C1115.87 169.733 1113.66 173.769 1110.5 171.778C1108.04 170.229 1108.45 167.239 1107.5 164.158Z" fill="#5383FF"/>
<path fill-rule="evenodd" clip-rule="evenodd" d="M1145.41 138.579C1145.41 134.476 1167.92 75.8602 1167.92 75.8602L1168.89 76.1398C1168.89 76.1398 1156.91 138.579 1156.91 142.096C1153.78 144.154 1151.58 148.189 1148.42 146.199C1145.95 144.649 1146.37 141.659 1145.41 138.579Z" fill="#5383FF"/>
<path fill-rule="evenodd" clip-rule="evenodd" d="M1131.33 75.2741C1131.33 71.171 1153.83 12.5556 1153.83 12.5556L1154.8 12.8353C1154.8 12.8353 1142.83 75.2741 1142.83 78.791C1139.7 80.849 1137.49 84.8842 1134.33 82.894C1131.87 81.3441 1132.28 78.3545 1131.33 75.2741Z" fill="#5383FF"/>
<path fill-rule="evenodd" clip-rule="evenodd" d="M1131.59 42.9449C1131.59 38.8417 1154.09 -19.7736 1154.09 -19.7736L1155.06 -19.494C1155.06 -19.494 1143.09 42.9448 1143.09 46.4617C1139.95 48.5198 1137.75 52.555 1134.59 50.5648C1132.12 49.0149 1132.54 46.0252 1131.59 42.9449Z" fill="#5383FF"/>
<path fill-rule="evenodd" clip-rule="evenodd" d="M1055.59 106.25C1055.59 102.146 1078.09 43.5311 1078.09 43.5311L1079.06 43.8107C1079.06 43.8107 1067.09 106.25 1067.09 109.766C1063.95 111.824 1061.75 115.86 1058.59 113.869C1056.12 112.32 1056.54 109.33 1055.59 106.25Z" fill="#5383FF"/>
<path fill-rule="evenodd" clip-rule="evenodd" d="M1079.41 17.365C1079.41 13.2619 1101.91 -45.3534 1101.91 -45.3534L1102.89 -45.0738C1102.89 -45.0738 1090.91 17.365 1090.91 20.8819C1087.78 22.9399 1085.58 26.9751 1082.41 24.985C1079.95 23.4351 1080.37 20.4454 1079.41 17.365Z" fill="#5383FF"/>
<path fill-rule="evenodd" clip-rule="evenodd" d="M630.067 25.5748C630.067 25.5702 630.067 4 640.034 4C650 4.00003 650 25.5748 650 25.5748V690.402C650 721.103 644.59 748.231 634.637 767.882C624.651 787.6 609.17 801.156 589.64 799.922C570.64 798.721 555.574 782.638 546.201 762.799C536.661 742.605 531.897 699.505 534.887 691.415C537.877 683.324 540.516 677.448 546.201 679.066C551.048 680.445 553.732 691.415 553.732 691.415C551.947 714.117 556.166 735.976 563.753 752.035C571.507 768.448 581.584 776.668 590.744 777.247C600.261 777.848 609.7 771.68 617.373 756.531C625.079 741.316 630.067 718.435 630.067 690.402V25.5748Z" fill="#482505"/>
<path d="M86 196C86 196 409.116 21.2266 638.845 23.0136C862.074 24.7501 1193 194.693 1193 194.693C1193 194.693 1111.6 153.013 1055.44 152.866C998.796 152.717 916.578 194.693 916.578 194.693C916.578 194.693 837.359 153.914 782.515 152.866C724.079 151.749 638.845 194.693 638.845 194.693C638.845 194.693 557.993 153.208 502.162 152.866C445.189 152.517 362.422 194.693 362.422 194.693C362.422 194.693 279.38 152.186 222.246 152.866C166.428 153.53 86 196 86 196Z" fill="#42414B"/>
<path d="M638.845 23.0136C409.116 21.2266 86 196 86 196C86 196 166.428 153.53 222.246 152.866C279.38 152.186 362.422 194.693 362.422 194.693M638.845 23.0136C862.074 24.7501 1193 194.693 1193 194.693C1193 194.693 1111.6 153.013 1055.44 152.866C998.796 152.717 916.578 194.693 916.578 194.693M638.845 23.0136L916.578 194.693M638.845 23.0136V194.693M638.845 23.0136L362.422 194.693M916.578 194.693C916.578 194.693 837.36 153.914 782.515 152.866C724.079 151.749 638.845 194.693 638.845 194.693M638.845 194.693C638.845 194.693 557.993 153.208 502.162 152.866C445.189 152.517 362.422 194.693 362.422 194.693" stroke="black" stroke-width="8"/>
<path fill-rule="evenodd" clip-rule="evenodd" d="M908.5 91.4291C908.5 87.326 931 28.7107 931 28.7107L931.971 28.9903C931.971 28.9903 920 91.4291 920 94.946C916.869 97.004 914.663 101.039 911.5 99.0491C909.037 97.4991 909.455 94.5095 908.5 91.4291Z" fill="#5383FF"/>
<path fill-rule="evenodd" clip-rule="evenodd" d="M595.415 23.8494C595.415 19.7463 617.915 -38.8691 617.915 -38.8691L618.886 -38.5894C618.886 -38.5894 606.915 23.8494 606.915 27.3663C603.784 29.4243 601.578 33.4595 598.415 31.4694C595.952 29.9194 596.37 26.9298 595.415 23.8494Z" fill="#5383FF"/>
<path fill-rule="evenodd" clip-rule="evenodd" d="M894.415 28.1247C894.415 24.0215 916.915 -34.5938 916.915 -34.5938L917.886 -34.3142C917.886 -34.3142 905.915 28.1246 905.915 31.6416C902.784 33.6996 900.578 37.7348 897.415 35.7446C894.952 34.1947 895.37 31.2051 894.415 28.1247Z" fill="#5383FF"/>
<path fill-rule="evenodd" clip-rule="evenodd" d="M932.33 2.54485C932.33 -1.55829 954.83 -60.1736 954.83 -60.1736L955.801 -59.894C955.801 -59.894 943.83 2.54481 943.83 6.06172C940.698 8.11974 938.493 12.1549 935.33 10.1648C932.866 8.61487 933.285 5.62522 932.33 2.54485Z" fill="#5383FF"/>
<path fill-rule="evenodd" clip-rule="evenodd" d="M636.5 -6.84151C636.5 -10.9446 659 -69.56 659 -69.56L659.971 -69.2803C659.971 -69.2803 648 -6.84154 648 -3.32463C644.869 -1.26661 642.663 2.76859 639.5 0.778434C637.037 -0.771486 637.455 -3.76113 636.5 -6.84151Z" fill="#5383FF"/>
<path fill-rule="evenodd" clip-rule="evenodd" d="M1025.41 9.57878C1025.41 5.47564 1047.92 -53.1397 1047.92 -53.1397L1048.89 -52.8601C1048.89 -52.8601 1036.91 9.57875 1036.91 13.0957C1033.78 15.1537 1031.58 19.1889 1028.42 17.1987C1025.95 15.6488 1026.37 12.6592 1025.41 9.57878Z" fill="#5383FF"/>
<path fill-rule="evenodd" clip-rule="evenodd" d="M958.415 153.274C958.415 149.171 980.915 90.5556 980.915 90.5556L981.886 90.8353C981.886 90.8353 969.915 153.274 969.915 156.791C966.783 158.849 964.578 162.884 961.415 160.894C958.951 159.344 959.37 156.354 958.415 153.274Z" fill="#5383FF"/>
<path fill-rule="evenodd" clip-rule="evenodd" d="M1035.41 125.274C1035.41 121.171 1057.91 62.5556 1057.91 62.5556L1058.89 62.8353C1058.89 62.8353 1046.91 125.274 1046.91 128.791C1043.78 130.849 1041.58 134.884 1038.41 132.894C1035.95 131.344 1036.37 128.354 1035.41 125.274Z" fill="#5383FF"/>
<path fill-rule="evenodd" clip-rule="evenodd" d="M610.415 75.22C610.415 71.1169 632.915 12.5015 632.915 12.5015L633.886 12.7812C633.886 12.7812 621.915 75.22 621.915 78.7369C618.784 80.7949 616.578 84.8301 613.415 82.84C610.952 81.29 611.37 78.3004 610.415 75.22Z" fill="#5383FF"/>
<path fill-rule="evenodd" clip-rule="evenodd" d="M999.33 91.6402C999.33 87.537 1021.83 28.9217 1021.83 28.9217L1022.8 29.2013C1022.8 29.2013 1010.83 91.6401 1010.83 95.1571C1007.7 97.2151 1005.49 101.25 1002.33 99.2601C999.866 97.7102 1000.28 94.7206 999.33 91.6402Z" fill="#5383FF"/>
<path fill-rule="evenodd" clip-rule="evenodd" d="M782.415 72.2741C782.415 68.171 804.915 9.55563 804.915 9.55563L805.886 9.83525C805.886 9.83525 793.915 72.2741 793.915 75.791C790.783 77.849 788.578 81.8842 785.415 79.894C782.951 78.3441 783.37 75.3545 782.415 72.2741Z" fill="#5383FF"/>
<path fill-rule="evenodd" clip-rule="evenodd" d="M614.415 160.274C614.415 156.171 636.915 97.5556 636.915 97.5556L637.886 97.8353C637.886 97.8353 625.915 160.274 625.915 163.791C622.783 165.849 620.578 169.884 617.415 167.894C614.951 166.344 615.37 163.354 614.415 160.274Z" fill="#5383FF"/>
<path fill-rule="evenodd" clip-rule="evenodd" d="M258.415 133.274C258.415 129.171 280.915 70.5556 280.915 70.5556L281.886 70.8353C281.886 70.8353 269.915 133.274 269.915 136.791C266.783 138.849 264.578 142.884 261.415 140.894C258.951 139.344 259.37 136.354 258.415 133.274Z" fill="#5383FF"/>
<path fill-rule="evenodd" clip-rule="evenodd" d="M572.33 112.945C572.33 108.842 594.83 50.2264 594.83 50.2264L595.801 50.506C595.801 50.506 583.83 112.945 583.83 116.462C580.698 118.52 578.493 122.555 575.33 120.565C572.866 119.015 573.285 116.025 572.33 112.945Z" fill="#5383FF"/>
<path fill-rule="evenodd" clip-rule="evenodd" d="M834.5 147.7C834.5 143.597 857 84.9815 857 84.9815L857.971 85.2612C857.971 85.2612 846 147.7 846 151.217C842.869 153.275 840.663 157.31 837.5 155.32C835.037 153.77 835.455 150.78 834.5 147.7Z" fill="#5383FF"/>
<path fill-rule="evenodd" clip-rule="evenodd" d="M872.415 122.12C872.415 118.017 894.915 59.4017 894.915 59.4017L895.886 59.6813C895.886 59.6813 883.915 122.12 883.915 125.637C880.783 127.695 878.578 131.73 875.415 129.74C872.951 128.19 873.37 125.201 872.415 122.12Z" fill="#5383FF"/>
<path fill-rule="evenodd" clip-rule="evenodd" d="M469.415 42.3954C469.415 38.2923 491.915 -20.323 491.915 -20.323L492.886 -20.0434C492.886 -20.0434 480.915 42.3954 480.915 45.9123C477.783 47.9703 475.578 52.0055 472.415 50.0154C469.951 48.4655 470.37 45.4758 469.415 42.3954Z" fill="#5383FF"/>
<path fill-rule="evenodd" clip-rule="evenodd" d="M507.33 16.8156C507.33 12.7125 529.83 -45.9029 529.83 -45.9029L530.801 -45.6232C530.801 -45.6232 518.829 16.8156 518.829 20.3325C515.698 22.3905 513.493 26.4257 510.33 24.4355C507.866 22.8856 508.284 19.896 507.33 16.8156Z" fill="#5383FF"/>
<path fill-rule="evenodd" clip-rule="evenodd" d="M373.5 18.4292C373.5 14.3261 396 -44.2892 396 -44.2892L396.971 -44.0096C396.971 -44.0096 385 18.4292 385 21.9461C381.869 24.0041 379.663 28.0393 376.5 26.0492C374.037 24.4993 374.455 21.5096 373.5 18.4292Z" fill="#5383FF"/>
<path fill-rule="evenodd" clip-rule="evenodd" d="M411.415 -7.15059C411.415 -11.2537 433.915 -69.8691 433.915 -69.8691L434.886 -69.5894C434.886 -69.5894 422.915 -7.15062 422.915 -3.63371C419.784 -1.57569 417.578 2.4595 414.415 0.469352C411.952 -1.08057 412.37 -4.07021 411.415 -7.15059Z" fill="#5383FF"/>
<path fill-rule="evenodd" clip-rule="evenodd" d="M440.5 107.525C440.5 103.422 463 44.8062 463 44.8062L463.971 45.0859C463.971 45.0859 452 107.525 452 111.042C448.869 113.1 446.663 117.135 443.5 115.145C441.037 113.595 441.455 110.605 440.5 107.525Z" fill="#5383FF"/>
<path fill-rule="evenodd" clip-rule="evenodd" d="M478.415 81.9449C478.415 77.8417 500.915 19.2264 500.915 19.2264L501.886 19.506C501.886 19.506 489.915 81.9448 489.915 85.4617C486.783 87.5198 484.578 91.555 481.415 89.5648C478.951 88.0149 479.37 85.0252 478.415 81.9449Z" fill="#5383FF"/>
<path fill-rule="evenodd" clip-rule="evenodd" d="M426.415 44.2201C426.415 40.117 448.915 -18.4983 448.915 -18.4983L449.886 -18.2187C449.886 -18.2187 437.915 44.2201 437.915 47.737C434.783 49.795 432.578 53.8302 429.415 51.8401C426.951 50.2902 427.37 47.3005 426.415 44.2201Z" fill="#5383FF"/>
<path fill-rule="evenodd" clip-rule="evenodd" d="M464.33 18.6403C464.33 14.5372 486.83 -44.0782 486.83 -44.0782L487.801 -43.7985C487.801 -43.7985 475.829 18.6403 475.829 22.1572C472.698 24.2152 470.493 28.2504 467.33 26.2602C464.866 24.7103 465.284 21.7207 464.33 18.6403Z" fill="#5383FF"/>
<path fill-rule="evenodd" clip-rule="evenodd" d="M364.5 170.829C364.5 166.726 387 108.111 387 108.111L387.971 108.391C387.971 108.391 376 170.829 376 174.346C372.869 176.404 370.663 180.439 367.5 178.449C365.037 176.899 365.455 173.91 364.5 170.829Z" fill="#5383FF"/>
<path fill-rule="evenodd" clip-rule="evenodd" d="M402.415 145.25C402.415 141.146 424.915 82.5311 424.915 82.5311L425.886 82.8107C425.886 82.8107 413.915 145.25 413.915 148.766C410.784 150.824 408.578 154.86 405.415 152.869C402.952 151.32 403.37 148.33 402.415 145.25Z" fill="#5383FF"/>
<path fill-rule="evenodd" clip-rule="evenodd" d="M350.415 107.525C350.415 103.422 372.915 44.8062 372.915 44.8062L373.886 45.0859C373.886 45.0859 361.915 107.525 361.915 111.042C358.784 113.1 356.578 117.135 353.415 115.145C350.952 113.595 351.37 110.605 350.415 107.525Z" fill="#5383FF"/>
<path fill-rule="evenodd" clip-rule="evenodd" d="M388.33 81.9449C388.33 77.8417 410.83 19.2264 410.83 19.2264L411.801 19.506C411.801 19.506 399.83 81.9448 399.83 85.4617C396.698 87.5198 394.493 91.555 391.33 89.5648C388.866 88.0149 389.284 85.0252 388.33 81.9449Z" fill="#5383FF"/>
<path fill-rule="evenodd" clip-rule="evenodd" d="M299.5 74.7001C299.5 70.597 322 11.9817 322 11.9817L322.971 12.2613C322.971 12.2613 311 74.7001 311 78.217C307.869 80.275 305.663 84.3102 302.5 82.3201C300.037 80.7701 300.455 77.7805 299.5 74.7001Z" fill="#5383FF"/>
<path fill-rule="evenodd" clip-rule="evenodd" d="M337.415 49.1203C337.415 45.0171 359.915 -13.5982 359.915 -13.5982L360.886 -13.3186C360.886 -13.3186 348.915 49.1203 348.915 52.6372C345.783 54.6952 343.578 58.7304 340.415 56.7402C337.951 55.1903 338.37 52.2007 337.415 49.1203Z" fill="#5383FF"/>
<path fill-rule="evenodd" clip-rule="evenodd" d="M285.415 11.3954C285.415 7.29229 307.915 -51.323 307.915 -51.323L308.886 -51.0434C308.886 -51.0434 296.915 11.3954 296.915 14.9123C293.783 16.9703 291.578 21.0055 288.415 19.0154C285.952 17.4655 286.37 14.4758 285.415 11.3954Z" fill="#5383FF"/>
<path fill-rule="evenodd" clip-rule="evenodd" d="M739.5 21.4291C739.5 17.326 762 -41.2893 762 -41.2893L762.971 -41.0097C762.971 -41.0097 751 21.4291 751 24.946C747.869 27.004 745.663 31.0392 742.5 29.0491C740.037 27.4991 740.455 24.5095 739.5 21.4291Z" fill="#5383FF"/>
<path fill-rule="evenodd" clip-rule="evenodd" d="M777.415 -4.15071C777.415 -8.25385 799.915 -66.8692 799.915 -66.8692L800.886 -66.5896C800.886 -66.5896 788.915 -4.15074 788.915 -0.633834C785.784 1.42419 783.578 5.45938 780.415 3.46923C777.952 1.91931 778.37 -1.07034 777.415 -4.15071Z" fill="#5383FF"/>
<path fill-rule="evenodd" clip-rule="evenodd" d="M844.415 84.9447C844.415 80.8416 866.915 22.2263 866.915 22.2263L867.886 22.5059C867.886 22.5059 855.915 84.9447 855.915 88.4616C852.784 90.5196 850.578 94.5548 847.415 92.5647C844.952 91.0148 845.37 88.0251 844.415 84.9447Z" fill="#5383FF"/>
<path fill-rule="evenodd" clip-rule="evenodd" d="M830.33 21.6402C830.33 17.537 852.83 -41.0783 852.83 -41.0783L853.801 -40.7987C853.801 -40.7987 841.83 21.6401 841.83 25.1571C838.698 27.2151 836.493 31.2503 833.33 29.2601C830.866 27.7102 831.285 24.7206 830.33 21.6402Z" fill="#5383FF"/>
<path fill-rule="evenodd" clip-rule="evenodd" d="M768.415 148.249C768.415 144.146 790.915 85.531 790.915 85.531L791.886 85.8106C791.886 85.8106 779.915 148.249 779.915 151.766C776.784 153.824 774.578 157.86 771.415 155.869C768.952 154.319 769.37 151.33 768.415 148.249Z" fill="#5383FF"/>
<path fill-rule="evenodd" clip-rule="evenodd" d="M716.415 110.525C716.415 106.421 738.915 47.8061 738.915 47.8061L739.886 48.0857C739.886 48.0857 727.915 110.525 727.915 114.041C724.784 116.099 722.578 120.135 719.415 118.145C716.952 116.595 717.37 113.605 716.415 110.525Z" fill="#5383FF"/>
<path fill-rule="evenodd" clip-rule="evenodd" d="M665.5 77.7C665.5 73.5969 688 14.9815 688 14.9815L688.971 15.2612C688.971 15.2612 677 77.7 677 81.2169C673.869 83.2749 671.663 87.3101 668.5 85.3199C666.037 83.77 666.455 80.7804 665.5 77.7Z" fill="#5383FF"/>
<path fill-rule="evenodd" clip-rule="evenodd" d="M651.415 14.3954C651.415 10.2923 673.915 -48.323 673.915 -48.323L674.886 -48.0434C674.886 -48.0434 662.915 14.3954 662.915 17.9123C659.783 19.9703 657.578 24.0055 654.415 22.0154C651.951 20.4655 652.37 17.4758 651.415 14.3954Z" fill="#5383FF"/>
</g>
<defs>
<linearGradient id="paint0_linear_1_1135" x1="640" y1="0" x2="640" y2="832" gradientUnits="userSpaceOnUse">
<stop stop-color="#5D6884"/>
<stop offset="1" stop-color="#B0BCDC"/>
</linearGradient>
<clipPath id="clip0_1_1135">
<rect width="1280" height="832" fill="white"/>
</clipPath>
</defs>
</svg>
